<?xml version="1.0" encoding="utf-8"?>
<svg width="283.041" height="282.954" viewBox="0 0 283.041 282.954" xmlns="http://www.w3.org/2000/svg" xmlns:xlink="http://www.w3.org/1999/xlink">
  <defs>
    <style>.a{fill:url(#a);}.b{fill:#bdd0fb;}.c{fill:#91b3fa;}.d{opacity:0.46;fill:url(#b);}.e{fill:url(#c);}.f{fill:url(#d);}.aa,.ab,.ae,.af,.ag,.ak,.g,.h,.i,.j,.k,.l,.m,.n,.o,.p,.q,.r,.s,.t,.u,.v,.w{fill-rule:evenodd;}.g{fill:url(#e);}.h{fill:url(#f);}.i{fill:url(#g);}.j{fill:url(#h);}.k{fill:url(#i);}.l{fill:url(#j);}.m{fill:url(#k);}.n{fill:url(#l);}.o{fill:url(#m);}.p{fill:url(#n);}.q{fill:url(#o);}.r{fill:url(#p);}.s{fill:url(#q);}.t{fill:url(#r);}.u{fill:url(#s);}.v{fill:url(#t);}.w{fill:url(#u);}.x{fill:url(#v);}.y{fill:url(#w);}.z{fill:url(#x);}.aa{fill:url(#y);}.ab{fill:url(#z);}.ac{fill:url(#aa);}.ad{fill:url(#ab);}.ae{fill:url(#ac);}.af{fill:url(#ad);}.ag{fill:url(#ae);}.ah{fill:url(#af);}.ai{fill:url(#ag);}.aj{fill:url(#ah);}.ak{fill:url(#ai);}</style>
    <linearGradient id="a" x1="1.091" y1="1.163" x2="0.386" y2="0.408" gradientUnits="objectBoundingBox">
      <stop offset="0" stop-color="#dae3fe"/>
      <stop offset="1" stop-color="#e9effd"/>
    </linearGradient>
    <linearGradient id="b" x1="-0.049" y1="0.304" x2="0.722" y2="0.968" gradientUnits="objectBoundingBox">
      <stop offset="0" stop-color="#ff928e"/>
      <stop offset="1" stop-color="#fe7062"/>
    </linearGradient>
    <linearGradient id="e" x1="24.271" y1="-33.688" x2="25.531" y2="-33.688" gradientUnits="objectBoundingBox">
      <stop offset="0" stop-color="#09005d"/>
      <stop offset="1" stop-color="#1a0f91"/>
    </linearGradient>
    <linearGradient id="f" x1="0.482" y1="0.797" x2="0.533" y2="-0.577" gradientUnits="objectBoundingBox">
      <stop offset="0" stop-color="#a22b25"/>
      <stop offset="1" stop-color="#c0423c"/>
    </linearGradient>
    <linearGradient id="g" x1="6.055" y1="-11.222" x2="6.281" y2="-12.565" xlink:href="#f"/>
    <linearGradient id="h" x1="18.802" y1="-28.736" x2="19.501" y2="-32.469" xlink:href="#f"/>
    <linearGradient id="i" x1="5.518" y1="-9.754" x2="5.753" y2="-11.087" xlink:href="#f"/>
    <linearGradient id="j" x1="14.323" y1="-26.537" x2="15.022" y2="-30.271" xlink:href="#f"/>
    <linearGradient id="k" x1="-0.073" y1="0.5" x2="0.927" y2="0.5" xlink:href="#e"/>
    <linearGradient id="l" x1="2.092" y1="0.75" x2="2.315" y2="-0.618" xlink:href="#f"/>
    <linearGradient id="m" x1="0.846" y1="-1.051" x2="0.42" y2="0.93" xlink:href="#e"/>
    <linearGradient id="n" x1="0.5" y1="-4.11" x2="0.5" y2="-1.047" xlink:href="#e"/>
    <linearGradient id="o" x1="-31.802" y1="2.316" x2="-33.542" y2="-3.45" xlink:href="#f"/>
    <linearGradient id="p" x1="0.838" y1="-0.089" x2="2.757" y2="-2.749" gradientUnits="objectBoundingBox">
      <stop offset="0" stop-color="#4f52ff"/>
      <stop offset="1" stop-color="#4042e2"/>
    </linearGradient>
    <linearGradient id="q" x1="0.004" y1="2.191" x2="0.913" y2="-0.722" xlink:href="#f"/>
    <linearGradient id="r" x1="-1.842" y1="0.247" x2="-2.236" y2="-0.604" xlink:href="#e"/>
    <linearGradient id="s" x1="-2.274" y1="0.81" x2="-2.426" y2="-0.433" xlink:href="#f"/>
    <linearGradient id="t" x1="-2.235" y1="0.592" x2="-2.734" y2="-0.741" xlink:href="#e"/>
    <linearGradient id="u" x1="-12.519" y1="1.422" x2="-13.209" y2="-3.496" xlink:href="#f"/>
    <linearGradient id="v" x1="-48.505" y1="0.5" x2="-47.505" y2="0.5" xlink:href="#p"/>
    <linearGradient id="w" x1="-20.159" y1="0.5" x2="-19.159" y2="0.5" gradientUnits="objectBoundingBox">
      <stop offset="0" stop-color="#febbba"/>
      <stop offset="1" stop-color="#ff928e"/>
    </linearGradient>
    <linearGradient id="x" x1="-23.91" y1="0.5" x2="-22.91" y2="0.5" xlink:href="#w"/>
    <linearGradient id="y" x1="-1.707" y1="-0.766" x2="-0.95" y2="0.031" xlink:href="#e"/>
    <linearGradient id="z" x1="0.691" y1="0.355" x2="2.45" y2="-4.585" xlink:href="#p"/>
    <linearGradient id="aa" x1="2.625" y1="-7.423" x2="1.055" y2="-1.526" xlink:href="#b"/>
    <linearGradient id="ab" x1="2.756" y1="-3.907" x2="1.214" y2="-0.826" xlink:href="#b"/>
    <linearGradient id="ac" x1="10.665" y1="5.497" x2="11.201" y2="3.749" xlink:href="#w"/>
    <linearGradient id="ad" x1="-3.972" y1="-4.24" x2="-0.966" y2="-6.049" xlink:href="#w"/>
    <linearGradient id="ae" x1="-2.256" y1="-27.801" x2="10.358" y2="-35.695" xlink:href="#w"/>
    <linearGradient id="af" x1="-23.683" y1="0.5" x2="-22.683" y2="0.5" xlink:href="#w"/>
    <linearGradient id="ag" x1="2.399" y1="-7.556" x2="0.985" y2="-1.544" xlink:href="#b"/>
    <linearGradient id="ah" x1="4.907" y1="-41.094" x2="5.765" y2="-41.094" xlink:href="#w"/>
    <linearGradient id="ai" x1="-6.147" y1="-2.253" x2="-3.747" y2="-0.038" xlink:href="#e"/>
  </defs>
  <g transform="matrix(1, 0, 0, 1, -461.953674, -459.132996)">
    <path class="a" d="M709.87,719.907a108.192,108.192,0,0,1-19,15.426C641.651,768.195,585.392,758.723,568,755.486c-28.063-5.223-51.752-8.908-72.1-27.3-46.248-41.783-44-128.947-8.66-182.941,4.19-6.4,39.476-58.707,95.857-66.077,1.379-.18,2.408-.283,3.309-.378,8.722-.923,62.77-5.8,106.841,31.125a131.472,131.472,0,0,1,25.875,29.359C753.54,592.442,753.649,674.782,709.87,719.907Z" transform="translate(0 -15.631)"/>
    <path class="b" d="M465.287,1698.242a72.431,72.431,0,0,0,34.582,67.714c32.873,20.05,74.736,10.794,99.686-6.263,38.844-26.557,53.667-83.63,25.371-115.073-23.678-26.312-66.346-22.228-72.869-21.5C512.307,1627.527,469.09,1656.562,465.287,1698.242Z" transform="translate(-3.678 -1043.992)"/>
    <path class="c" d="M1667.64,811.4c-40.762-35.07-109.839-16.545-136.179,25.19-35.7,56.563,10.472,150.422,64.046,157.972,33.766,4.759,65.218-25.508,79.851-49.132C1698.324,908.356,1706.418,844.767,1667.64,811.4Z" transform="translate(-950.692 -298.578)"/>
    <path class="d" d="M530.116,462.4c-13.766,2.8-39.636,8.073-53.18,34.033-17.307,33.172-5.69,79.933,22.854,106.249,38.1,35.123,103.3,7.822,109.723,3.606C636,588.912,646,556.958,637.858,520.1,628.1,475.956,570.632,454.149,530.116,462.4Z" transform="translate(-7.092 0)"/>
    <g transform="matrix(1, 0, 0, 1, 516.490906, 484.110077)">
      <path class="g" d="M556.269,2033.82a14.5,14.5,0,0,0-2.51-1.866.533.533,0,0,0-.678.143c-.945,1.223-4.1,5.458-4.8,8.373a.543.543,0,0,0,.286.6c.813.424,2.957.882,6.015-3.372l1.837-2.6A.973.973,0,0,0,556.269,2033.82Z" transform="translate(-546.443 -1949.208)"/>
      <path class="h" d="M620.338,1957.148s-1.027,13.871-6.678,18.494c-4.948,4.048-12.652-3.324-14.493-5.222a1.18,1.18,0,0,1-.321-1.047,2.9,2.9,0,0,1,1.4-2.065,1.442,1.442,0,0,1,1.7.186c1.534,1.418,5.553,4.858,7.6,4.037,2.569-1.027,4.11-14.385,4.11-14.385Z" transform="translate(-591.876 -1882.044)"/>
      <g transform="translate(0 1.701)">
        <path class="i" d="M573.455,1325.458s-7.706-3.6-11.94-23.309l2.107-1.08s8.18,16.1,12.4,19.765S573.455,1325.458,573.455,1325.458Z" transform="translate(-558.35 -1294.182)"/>
        <path class="j" d="M535.1,1242.394l-1.63-1.293a16.02,16.02,0,0,1-3-3.994c-.781-1.835,1.511-3.489,2.376-3.878s1.339.432,1.166,2.276a8.192,8.192,0,0,1,1.686,5.628Z" transform="translate(-530.301 -1233.134)"/>
      </g>
      <g transform="translate(43.667 0.16)">
        <path class="k" d="M966.9,1311.795s8.713-13.574,10.287-24.847l-2.107-1.08s-8.714,18.247-12.935,21.915S966.9,1311.795,966.9,1311.795Z" transform="translate(-961.02 -1278.98)"/>
        <path class="l" d="M1098.942,1227.193l1.63-1.293a16.02,16.02,0,0,0,3.005-3.994c.781-1.835-1.511-3.488-2.376-3.878s-1.339.431-1.166,2.276a8.191,8.191,0,0,0-1.686,5.628Z" transform="translate(-1084.401 -1217.932)"/>
      </g>
      <path class="m" d="M832.476,2309.037a17.115,17.115,0,0,0-.57,3.951.537.537,0,0,0,.464.519c1.534.211,6.772.84,9.649,0a.532.532,0,0,0,.383-.525c-.026-.9-.662-3.023-5.918-3.564Z" transform="translate(-801.326 -2198.258)"/>
      <path class="n" d="M848.267,1966.121c.647.422-4.233,34.688-5.415,34.937,0,0-1.352,1.257-3.439-.176a207.847,207.847,0,0,0,1.289-34.071Z" transform="translate(-808.074 -1890.107)"/>
      <path class="o" d="M733.624,1760.989s15.913.728,19.7,2.058c0,0-.467,12.938-2.023,20.888a.794.794,0,0,1-.6.624,15.782,15.782,0,0,1-7.665-.566.8.8,0,0,1-.577-.821l.42-5.153a.628.628,0,0,0-.583-.669l-.426-.065a.628.628,0,0,0-.671.621l-.8,5.226a.794.794,0,0,1-.539.746,13.882,13.882,0,0,1-8.414-.089.793.793,0,0,1-.562-.751C730.841,1776.695,731.98,1769.107,733.624,1760.989Z" transform="translate(-710.546 -1705.772)"/>
      <path class="p" d="M755.92,1768.466s-2.011,5.593-6.866,5.98l1.073-6.378A36.659,36.659,0,0,1,755.92,1768.466Z" transform="translate(-726.876 -1712.134)"/>
      <path class="q" d="M964.805,1347.33s-.612-1.728.948-2.036.072,4.28.072,4.28Z" transform="translate(-920.648 -1332.209)"/>
      <path class="r" d="M666.138,1462.543a29.465,29.465,0,0,0,15.926,4.11c7.284-.428,11.709-2.286,14.169-4.381a2.6,2.6,0,0,1,3.1-.246,22.085,22.085,0,0,1,3.967,3.3,1.193,1.193,0,0,1,.165,1.447,20.617,20.617,0,0,1-6.782,7.217,4.691,4.691,0,0,0-1.215,3.276l.443,16.835a.948.948,0,0,1-.771.96c-3.193.606-15.309,2.715-22.84,1.386v-18.157a3.7,3.7,0,0,0-1.927-3.233,19.9,19.9,0,0,1-6.293-5.837Z" transform="translate(-650.52 -1436.758)"/>
      <path class="s" d="M800.4,1432.391l-.789,8.668s4.575,2.673,8.511.336l-.7-7.571Z" transform="translate(-772.311 -1410.488)"/>
      <path class="t" d="M743.13,1232.092s2.005-3.433-.549-5.239a4.522,4.522,0,0,0-1.221-5.207s-4.126-9.658-12.789-2.883c0,0-7.459-2.218-9.858,7.057,0,0-2.48,1.392-1.344,4.857,0,0-.279,12.855,10.98,8.521Z" transform="translate(-698.136 -1216.353)"/>
      <path class="u" d="M790.893,1297.128s9.544,14.38-.317,18.785c-9.306,4.157-13.228-5.392-13.228-5.392s-4.092-4.24-2.718-7.5S788.567,1295.341,790.893,1297.128Z" transform="translate(-749.606 -1288.569)"/>
      <path class="v" d="M763.723,1284.108s9.341-2.957,8.542-8.473a2.062,2.062,0,0,0,2.115-1.744s4.584,4.124,5.792,1.24c0,0-.8-7.14-6.4-4.826s-10.715,4.667-12.214,6.314S758.811,1282.252,763.723,1284.108Z" transform="translate(-736.912 -1264.42)"/>
      <path class="w" d="M776.3,1401.27l-1.659-4.561s-3.206-1.473-2.784,1.008S775.159,1401.569,776.3,1401.27Z" transform="translate(-747.331 -1378.034)"/>
    </g>
    <g transform="matrix(1, 0, 0, 1, 611.376038, 474.056305)">
      <path class="x" d="M2665.217,2289.817s3.823.85,3.823,1.7-2.549,5.947-5.522,6.8-2.548-1.274-1.274-2.548S2663.943,2289.392,2665.217,2289.817Z" transform="translate(-2617.565 -2179.688)"/>
      <path class="y" d="M2489.269,1869.149s-4.346,12.068-4.741,16.985,16.2,13.856,16.2,13.856l1.185-4.023s-9.877-8.045-9.482-10.28,4.741-15.2,4.741-15.2Z" transform="translate(-2458.734 -1801.691)"/>
      <path class="z" d="M2615.518,1885.057s-9.482,15.2-7.9,22.348,3.951,16.538,3.951,16.538.683.772-1.442,1.24a.783.783,0,0,1-.823-.344c-1.478-2.285-8.139-12.821-9.192-18.775-1.185-6.7,4.741-23.689,4.741-23.689Z" transform="translate(-2562.462 -1813.576)"/>
      <path class="aa" d="M2585.933,1222.63c-2.4-6.512-7.813-10.876-13.548-11.6a8.4,8.4,0,0,1-4.612-2.19,8.816,8.816,0,0,0-9.029-1.9l-.026.01a4.528,4.528,0,0,1-4.311-.539c-3.658-2.738-12.719-3.364-16.981-1.8-7.089,2.608-9.445,10.4-6.511,18.378s14.471,12.786,21.56,10.178a12.247,12.247,0,0,0,2.74-1.422,2.026,2.026,0,0,1,3.086.961l.028.077c3.25,8.836,12.065,13.726,19.687,10.921S2589.184,1231.466,2585.933,1222.63Z" transform="translate(-2499.316 -1203.767)"/>
      <path class="ab" d="M2503.236,1696.195s-7.245,13.7-9.527,22.788a.892.892,0,0,0,.783,1.039,25.727,25.727,0,0,1,5.258,1.723,19.778,19.778,0,0,0,10.514,1.437,101.911,101.911,0,0,1,11.072.163.937.937,0,0,0,1.066-.883c-.151-3.495-.864-15.923-3.631-24.677Z" transform="translate(-2466.969 -1646.271)"/>
      <path class="ac" d="M2330.779,1377.307c9.948,9.18,19.517,11.358,26.488,11.654a1.078,1.078,0,0,0-.173.755q.053.461.109.921a1.4,1.4,0,0,0-.289,1.076c.3,2.267.508,4.546.809,6.811-24.9-1.383-29.4-18.632-29.4-18.632Z" transform="translate(-2318.37 -1359.713)"/>
      <path class="ad" d="M2530.674,1477.668a29.235,29.235,0,0,0-6.278.387,7.36,7.36,0,0,0-6.038,6.626l-2.135,25.831s7.365,12.1,27.9,6.064a2.851,2.851,0,0,0,1.933-3.5l-6.175-28.93C2538.987,1480.913,2534.029,1477.776,2530.674,1477.668Z" transform="translate(-2487.221 -1449.879)"/>
      <path class="ae" d="M2595.919,1399.717l2.462,8.178a1.346,1.346,0,0,1-.742,1.619,12.242,12.242,0,0,1-6.447,1.167,1.355,1.355,0,0,1-1.141-1.2l-.839-8.729Z" transform="translate(-2552.81 -1379.851)"/>
      <path class="af" d="M2562.731,1272.659c-1.9,5.445-7.068,9.911-13.33,7.464-4.333-1.693-4.859-6.244-2.963-11.69s6.7-8.922,11.089-7.392S2564.627,1267.214,2562.731,1272.659Z" transform="translate(-2513.438 -1254.909)"/>
      <path class="ag" d="M2685.487,1372.905s1.635-2.96,2.713-1.3-2.759,4.322-3.8,4.092S2685.487,1372.905,2685.487,1372.905Z" transform="translate(-2638.089 -1354.135)"/>
      <path class="ah" d="M2242.569,1312.081s-3.7-6.771-7.213-7.592-5.1-.04-5.1-.04a1.866,1.866,0,0,0,1.01,2.3c1.56.821,7.213,6.976,9.357,7.386S2242.569,1312.081,2242.569,1312.081Z" transform="translate(-2230.159 -1293.941)"/>
      <path class="ai" d="M2694.065,1518.381c-13.242-2.81-20.551-9.358-24.823-14.874-2.485-1.68-5.871-2.534-7.34.885a6.127,6.127,0,0,0,1.1,6.452c14.978,16.855,30.369,11.038,30.369,11.038Z" transform="translate(-2617.704 -1471.797)"/>
      <path class="aj" d="M2968.949,1664.906s7.666-.892,10.365,1.5,2.983,4.141,2.983,4.141a1.865,1.865,0,0,1-2.458.5c-1.571-.8-9.862-1.852-11.437-3.365S2968.949,1664.906,2968.949,1664.906Z" transform="translate(-2893.034 -1618.008)"/>
      <path class="ak" d="M2580.128,1252.412s-6.1,4.691-6.8-7.33c0,0-3.26,3-3.955-.267,0,0-5.625.911-5.829-1.424s8.6-7.064,14.106-1.646S2580.128,1252.412,2580.128,1252.412Z" transform="translate(-2529.746 -1235.648)"/>
    </g>
    <g transform="matrix(1, 0, 0, 1, 477.73407, 600.058655)">
      <path class="x" d="M2665.217,2289.817s3.823.85,3.823,1.7-2.549,5.947-5.522,6.8-2.548-1.274-1.274-2.548S2663.943,2289.392,2665.217,2289.817Z" transform="translate(-2617.565 -2179.688)"/>
      <path class="y" d="M2489.269,1869.149s-4.346,12.068-4.741,16.985,16.2,13.856,16.2,13.856l1.185-4.023s-9.877-8.045-9.482-10.28,4.741-15.2,4.741-15.2Z" transform="translate(-2458.734 -1801.691)"/>
      <path class="z" d="M2615.518,1885.057s-9.482,15.2-7.9,22.348,3.951,16.538,3.951,16.538.683.772-1.442,1.24a.783.783,0,0,1-.823-.344c-1.478-2.285-8.139-12.821-9.192-18.775-1.185-6.7,4.741-23.689,4.741-23.689Z" transform="translate(-2562.462 -1813.576)"/>
      <path class="aa" d="M2585.933,1222.63c-2.4-6.512-7.813-10.876-13.548-11.6a8.4,8.4,0,0,1-4.612-2.19,8.816,8.816,0,0,0-9.029-1.9l-.026.01a4.528,4.528,0,0,1-4.311-.539c-3.658-2.738-12.719-3.364-16.981-1.8-7.089,2.608-9.445,10.4-6.511,18.378s14.471,12.786,21.56,10.178a12.247,12.247,0,0,0,2.74-1.422,2.026,2.026,0,0,1,3.086.961l.028.077c3.25,8.836,12.065,13.726,19.687,10.921S2589.184,1231.466,2585.933,1222.63Z" transform="translate(-2499.316 -1203.767)"/>
      <path class="ab" d="M2503.236,1696.195s-7.245,13.7-9.527,22.788a.892.892,0,0,0,.783,1.039,25.727,25.727,0,0,1,5.258,1.723,19.778,19.778,0,0,0,10.514,1.437,101.911,101.911,0,0,1,11.072.163.937.937,0,0,0,1.066-.883c-.151-3.495-.864-15.923-3.631-24.677Z" transform="translate(-2466.969 -1646.271)"/>
      <path class="ac" d="M2330.779,1377.307c9.948,9.18,19.517,11.358,26.488,11.654a1.078,1.078,0,0,0-.173.755q.053.461.109.921a1.4,1.4,0,0,0-.289,1.076c.3,2.267.508,4.546.809,6.811-24.9-1.383-29.4-18.632-29.4-18.632Z" transform="translate(-2318.37 -1359.713)"/>
      <path class="ad" d="M2530.674,1477.668a29.235,29.235,0,0,0-6.278.387,7.36,7.36,0,0,0-6.038,6.626l-2.135,25.831s7.365,12.1,27.9,6.064a2.851,2.851,0,0,0,1.933-3.5l-6.175-28.93C2538.987,1480.913,2534.029,1477.776,2530.674,1477.668Z" transform="translate(-2487.221 -1449.879)"/>
      <path class="ae" d="M2595.919,1399.717l2.462,8.178a1.346,1.346,0,0,1-.742,1.619,12.242,12.242,0,0,1-6.447,1.167,1.355,1.355,0,0,1-1.141-1.2l-.839-8.729Z" transform="translate(-2552.81 -1379.851)"/>
      <path class="af" d="M2562.731,1272.659c-1.9,5.445-7.068,9.911-13.33,7.464-4.333-1.693-4.859-6.244-2.963-11.69s6.7-8.922,11.089-7.392S2564.627,1267.214,2562.731,1272.659Z" transform="translate(-2513.438 -1254.909)"/>
      <path class="ag" d="M2685.487,1372.905s1.635-2.96,2.713-1.3-2.759,4.322-3.8,4.092S2685.487,1372.905,2685.487,1372.905Z" transform="translate(-2638.089 -1354.135)"/>
      <path class="ah" d="M2242.569,1312.081s-3.7-6.771-7.213-7.592-5.1-.04-5.1-.04a1.866,1.866,0,0,0,1.01,2.3c1.56.821,7.213,6.976,9.357,7.386S2242.569,1312.081,2242.569,1312.081Z" transform="translate(-2230.159 -1293.941)"/>
      <path class="ai" d="M2694.065,1518.381c-13.242-2.81-20.551-9.358-24.823-14.874-2.485-1.68-5.871-2.534-7.34.885a6.127,6.127,0,0,0,1.1,6.452c14.978,16.855,30.369,11.038,30.369,11.038Z" transform="translate(-2617.704 -1471.797)"/>
      <path class="aj" d="M2968.949,1664.906s7.666-.892,10.365,1.5,2.983,4.141,2.983,4.141a1.865,1.865,0,0,1-2.458.5c-1.571-.8-9.862-1.852-11.437-3.365S2968.949,1664.906,2968.949,1664.906Z" transform="translate(-2893.034 -1618.008)"/>
      <path class="ak" d="M2580.128,1252.412s-6.1,4.691-6.8-7.33c0,0-3.26,3-3.955-.267,0,0-5.625.911-5.829-1.424s8.6-7.064,14.106-1.646S2580.128,1252.412,2580.128,1252.412Z" transform="translate(-2529.746 -1235.648)"/>
    </g>
    <g transform="matrix(1, 0, 0, 1, 601.356018, 601.11969)">
      <path class="g" d="M556.269,2033.82a14.5,14.5,0,0,0-2.51-1.866.533.533,0,0,0-.678.143c-.945,1.223-4.1,5.458-4.8,8.373a.543.543,0,0,0,.286.6c.813.424,2.957.882,6.015-3.372l1.837-2.6A.973.973,0,0,0,556.269,2033.82Z" transform="translate(-546.443 -1949.208)"/>
      <path class="h" d="M620.338,1957.148s-1.027,13.871-6.678,18.494c-4.948,4.048-12.652-3.324-14.493-5.222a1.18,1.18,0,0,1-.321-1.047,2.9,2.9,0,0,1,1.4-2.065,1.442,1.442,0,0,1,1.7.186c1.534,1.418,5.553,4.858,7.6,4.037,2.569-1.027,4.11-14.385,4.11-14.385Z" transform="translate(-591.876 -1882.044)"/>
      <g transform="translate(0 1.701)">
        <path class="i" d="M573.455,1325.458s-7.706-3.6-11.94-23.309l2.107-1.08s8.18,16.1,12.4,19.765S573.455,1325.458,573.455,1325.458Z" transform="translate(-558.35 -1294.182)"/>
        <path class="j" d="M535.1,1242.394l-1.63-1.293a16.02,16.02,0,0,1-3-3.994c-.781-1.835,1.511-3.489,2.376-3.878s1.339.432,1.166,2.276a8.192,8.192,0,0,1,1.686,5.628Z" transform="translate(-530.301 -1233.134)"/>
      </g>
      <g transform="translate(43.667 0.16)">
        <path class="k" d="M966.9,1311.795s8.713-13.574,10.287-24.847l-2.107-1.08s-8.714,18.247-12.935,21.915S966.9,1311.795,966.9,1311.795Z" transform="translate(-961.02 -1278.98)"/>
        <path class="l" d="M1098.942,1227.193l1.63-1.293a16.02,16.02,0,0,0,3.005-3.994c.781-1.835-1.511-3.488-2.376-3.878s-1.339.431-1.166,2.276a8.191,8.191,0,0,0-1.686,5.628Z" transform="translate(-1084.401 -1217.932)"/>
      </g>
      <path class="m" d="M832.476,2309.037a17.115,17.115,0,0,0-.57,3.951.537.537,0,0,0,.464.519c1.534.211,6.772.84,9.649,0a.532.532,0,0,0,.383-.525c-.026-.9-.662-3.023-5.918-3.564Z" transform="translate(-801.326 -2198.258)"/>
      <path class="n" d="M848.267,1966.121c.647.422-4.233,34.688-5.415,34.937,0,0-1.352,1.257-3.439-.176a207.847,207.847,0,0,0,1.289-34.071Z" transform="translate(-808.074 -1890.107)"/>
      <path class="o" d="M733.624,1760.989s15.913.728,19.7,2.058c0,0-.467,12.938-2.023,20.888a.794.794,0,0,1-.6.624,15.782,15.782,0,0,1-7.665-.566.8.8,0,0,1-.577-.821l.42-5.153a.628.628,0,0,0-.583-.669l-.426-.065a.628.628,0,0,0-.671.621l-.8,5.226a.794.794,0,0,1-.539.746,13.882,13.882,0,0,1-8.414-.089.793.793,0,0,1-.562-.751C730.841,1776.695,731.98,1769.107,733.624,1760.989Z" transform="translate(-710.546 -1705.772)"/>
      <path class="p" d="M755.92,1768.466s-2.011,5.593-6.866,5.98l1.073-6.378A36.659,36.659,0,0,1,755.92,1768.466Z" transform="translate(-726.876 -1712.134)"/>
      <path class="q" d="M964.805,1347.33s-.612-1.728.948-2.036.072,4.28.072,4.28Z" transform="translate(-920.648 -1332.209)"/>
      <path class="r" d="M666.138,1462.543a29.465,29.465,0,0,0,15.926,4.11c7.284-.428,11.709-2.286,14.169-4.381a2.6,2.6,0,0,1,3.1-.246,22.085,22.085,0,0,1,3.967,3.3,1.193,1.193,0,0,1,.165,1.447,20.617,20.617,0,0,1-6.782,7.217,4.691,4.691,0,0,0-1.215,3.276l.443,16.835a.948.948,0,0,1-.771.96c-3.193.606-15.309,2.715-22.84,1.386v-18.157a3.7,3.7,0,0,0-1.927-3.233,19.9,19.9,0,0,1-6.293-5.837Z" transform="translate(-650.52 -1436.758)"/>
      <path class="s" d="M800.4,1432.391l-.789,8.668s4.575,2.673,8.511.336l-.7-7.571Z" transform="translate(-772.311 -1410.488)"/>
      <path class="t" d="M743.13,1232.092s2.005-3.433-.549-5.239a4.522,4.522,0,0,0-1.221-5.207s-4.126-9.658-12.789-2.883c0,0-7.459-2.218-9.858,7.057,0,0-2.48,1.392-1.344,4.857,0,0-.279,12.855,10.98,8.521Z" transform="translate(-698.136 -1216.353)"/>
      <path class="u" d="M790.893,1297.128s9.544,14.38-.317,18.785c-9.306,4.157-13.228-5.392-13.228-5.392s-4.092-4.24-2.718-7.5S788.567,1295.341,790.893,1297.128Z" transform="translate(-749.606 -1288.569)"/>
      <path class="v" d="M763.723,1284.108s9.341-2.957,8.542-8.473a2.062,2.062,0,0,0,2.115-1.744s4.584,4.124,5.792,1.24c0,0-.8-7.14-6.4-4.826s-10.715,4.667-12.214,6.314S758.811,1282.252,763.723,1284.108Z" transform="translate(-736.912 -1264.42)"/>
      <path class="w" d="M776.3,1401.27l-1.659-4.561s-3.206-1.473-2.784,1.008S775.159,1401.569,776.3,1401.27Z" transform="translate(-747.331 -1378.034)"/>
    </g>
  </g>
</svg>