<svg xmlns="http://www.w3.org/2000/svg" xmlns:xlink="http://www.w3.org/1999/xlink" width="286" height="288.49" viewBox="0 0 286 288.49"><defs><style>.a{opacity:0.3;fill:url(#a);}.b{fill:url(#b);}.c{fill:url(#c);}.d{fill:url(#d);}.e{fill:url(#e);}.f{fill:url(#f);}.g{fill:url(#g);}.h{fill:url(#h);}.i{fill:url(#i);}.j{fill:url(#j);}.k{fill:url(#k);}.l{fill:url(#l);}.m{fill:url(#m);}.n{fill:url(#n);}.o{fill:url(#o);}.p{fill:url(#p);}.q{fill:url(#q);}.r{fill:url(#r);}.s{fill:#fff;}.t{fill:url(#s);}.u{fill:url(#t);}.v{fill:url(#u);}.w{fill:url(#v);}.x{fill:url(#w);}.y{fill:url(#x);}.z{fill:url(#y);}.aa{fill:url(#z);}.ab{fill:url(#aa);}.ac{fill:url(#ab);}.ad{fill:url(#ac);}.ae,.ah,.ai,.aj,.ak,.al,.am,.an,.ao,.ap,.aq,.ar{fill-rule:evenodd;}.ae{fill:url(#ad);}.af{fill:url(#ae);}.ag{fill:url(#af);}.ah{fill:url(#ag);}.ai{fill:url(#ah);}.aj{fill:url(#ai);}.ak{fill:url(#aj);}.al{fill:url(#ak);}.am{fill:url(#al);}.an{fill:url(#am);}.ao{fill:url(#an);}.ap{fill:url(#ao);}.aq{fill:url(#ap);}.ar{fill:url(#aq);}.as{fill:url(#ar);}.at{fill:url(#as);}.au{fill:url(#at);}.av{fill:url(#au);}.aw{fill:url(#av);}</style><linearGradient id="a" x1="1.086" y1="1.014" x2="0.335" y2="0.354" gradientUnits="objectBoundingBox"><stop offset="0" stop-color="#b37cff"/><stop offset="1" stop-color="#f895e7"/></linearGradient><linearGradient id="b" x1="11.83" y1="0.5" x2="12.83" y2="0.5" gradientUnits="objectBoundingBox"><stop offset="0" stop-color="#53d8ff"/><stop offset="1" stop-color="#3840f7"/></linearGradient><linearGradient id="c" x1="0.723" y1="-25.62" x2="0.44" y2="7.062" xlink:href="#b"/><linearGradient id="d" x1="32.038" y1="-0.852" x2="31.599" y2="2.399" gradientUnits="objectBoundingBox"><stop offset="0" stop-color="#f9b776"/><stop offset="1" stop-color="#f47960"/></linearGradient><linearGradient id="e" x1="0.512" y1="-13.46" x2="0.492" y2="9.238" xlink:href="#b"/><linearGradient id="f" x1="8.218" y1="0.5" x2="9.218" y2="0.5" xlink:href="#b"/><linearGradient id="g" x1="32.488" y1="-0.231" x2="32.041" y2="2.553" xlink:href="#d"/><linearGradient id="h" x1="6.402" y1="-0.325" x2="4.25" y2="1.256" gradientUnits="objectBoundingBox"><stop offset="0" stop-color="#7c27dd"/><stop offset="1" stop-color="#2b41d9"/></linearGradient><linearGradient id="i" x1="-4.295" y1="0.073" x2="-4.504" y2="2.227" xlink:href="#b"/><linearGradient id="j" x1="17.982" y1="-0.673" x2="16.933" y2="2.531" xlink:href="#d"/><linearGradient id="k" x1="-36.266" y1="-10.48" x2="-37.709" y2="-9.187" xlink:href="#d"/><linearGradient id="l" x1="-20.558" y1="-6.184" x2="-19.536" y2="-6.184" gradientUnits="objectBoundingBox"><stop offset="0" stop-color="#2b3582"/><stop offset="1" stop-color="#150e42"/></linearGradient><linearGradient id="m" x1="-96.847" y1="-27.959" x2="-94.008" y2="-30.24" xlink:href="#d"/><linearGradient id="n" x1="10.554" y1="-1.15" x2="-8.036" y2="1.893" xlink:href="#b"/><linearGradient id="o" x1="14.574" y1="-2.224" x2="13.286" y2="5.299" xlink:href="#d"/><linearGradient id="p" x1="6.557" y1="0.114" x2="5.994" y2="3.064" xlink:href="#b"/><linearGradient id="q" x1="15.377" y1="-2.358" x2="14.261" y2="5.504" xlink:href="#d"/><linearGradient id="r" x1="3.323" y1="-0.16" x2="2.374" y2="1.002" xlink:href="#l"/><linearGradient id="s" x1="8.34" y1="-2.257" x2="6.478" y2="5.323" xlink:href="#d"/><linearGradient id="t" x1="-26.777" y1="0.5" x2="-25.777" y2="0.5" gradientUnits="objectBoundingBox"><stop offset="0" stop-color="#a737d5"/><stop offset="1" stop-color="#ef497a"/></linearGradient><linearGradient id="u" x1="-25.155" y1="1.605" x2="-24.262" y2="-1.187" xlink:href="#d"/><linearGradient id="v" x1="-21.909" y1="0.5" x2="-20.909" y2="0.5" xlink:href="#t"/><linearGradient id="w" x1="-9.083" y1="1.691" x2="-8.685" y2="-1.184" xlink:href="#d"/><linearGradient id="x" x1="3.812" y1="1.57" x2="2.779" y2="3.433" xlink:href="#b"/><linearGradient id="y" x1="-8.139" y1="-0.341" x2="-9.004" y2="0.692" xlink:href="#b"/><linearGradient id="z" x1="-33.553" y1="1.849" x2="-33.334" y2="0.804" xlink:href="#d"/><linearGradient id="aa" x1="-17.728" y1="-3.213" x2="-16.273" y2="-5.375" xlink:href="#d"/><linearGradient id="ab" x1="1.952" y1="-3.578" x2="-0.514" y2="1.467" xlink:href="#l"/><linearGradient id="ac" x1="-73.916" y1="-10.495" x2="-67.75" y2="-17.368" xlink:href="#d"/><linearGradient id="ad" x1="-2.569" y1="1.273" x2="-2.998" y2="0.45" xlink:href="#l"/><linearGradient id="ae" x1="-2.223" y1="0.153" x2="-3.013" y2="1.414" gradientUnits="objectBoundingBox"><stop offset="0" stop-color="#c4421b"/><stop offset="1" stop-color="#5c0e16"/></linearGradient><linearGradient id="af" x1="-2.323" y1="0.25" x2="-2.93" y2="1.207" xlink:href="#ae"/><linearGradient id="ag" x1="-7.405" y1="0.485" x2="-6.405" y2="0.485" xlink:href="#l"/><linearGradient id="ah" x1="-6.753" y1="0.792" x2="-6.53" y2="-0.576" xlink:href="#ae"/><linearGradient id="ai" x1="-9.631" y1="0.474" x2="-8.631" y2="0.474" xlink:href="#l"/><linearGradient id="aj" x1="-9.372" y1="0.815" x2="-9.149" y2="-0.553" xlink:href="#ae"/><linearGradient id="ak" x1="-3.241" y1="0.512" x2="-2.293" y2="0.512" xlink:href="#l"/><linearGradient id="al" x1="-12.629" y1="-0.355" x2="-11.77" y2="0.905" xlink:href="#l"/><linearGradient id="am" x1="-1.634" y1="0.611" x2="-1.812" y2="1.851" gradientUnits="objectBoundingBox"><stop offset="0" stop-color="#fdf53f"/><stop offset="1" stop-color="#d93c65"/></linearGradient><linearGradient id="an" x1="-10.041" y1="2.191" x2="-9.131" y2="-0.722" xlink:href="#ae"/><linearGradient id="ao" x1="-31.027" y1="-8.718" x2="-31.873" y2="-9.023" xlink:href="#ae"/><linearGradient id="ap" x1="-3.873" y1="1.789" x2="-4.416" y2="0.794" xlink:href="#l"/><linearGradient id="aq" x1="-122.425" y1="-47.711" x2="-125.688" y2="-49.278" xlink:href="#ae"/><linearGradient id="ar" x1="-4.603" y1="0.045" x2="-5.689" y2="1.364" xlink:href="#d"/><linearGradient id="as" x1="-13.001" y1="-3.808" x2="-15.635" y2="1.722" xlink:href="#d"/><linearGradient id="at" x1="-0.153" y1="1.314" x2="0.916" y2="0.011" xlink:href="#d"/><linearGradient id="au" x1="0.244" y1="0.732" x2="1.977" y2="-0.435" xlink:href="#d"/><linearGradient id="av" x1="0.214" y1="1.137" x2="0.647" y2="-0.019" xlink:href="#t"/></defs><g transform="translate(-471.352 -456.165)"><path class="a" d="M745.365,673.637C717.617,738.973,643.7,775.574,579.6,765.7c-10.43-1.607-39.025-6.392-64.341-28.969-48.736-43.463-59.159-129.525-19.845-190.174,28.614-44.143,78.357-65.173,127.095-63.922,10.5.27,52.282-2.061,87.64,27.1a132.6,132.6,0,0,1,26.971,30.6C761.365,578.242,763.448,631.057,745.365,673.637Z" transform="translate(0 -23.688)"/><g transform="translate(480.034 456.165)"><path class="b" d="M2299.151,3072.52a1.611,1.611,0,0,0-.057-.487c-2.815-9.628-16.787-15.626-16.787-15.626l-5.537.374c-3.184,8.486-2.774,13.691-2.263,16.01.014.065.037.127.057.19A152.228,152.228,0,0,0,2299.151,3072.52Z" transform="translate(-2096.519 -2787.672)"/><path class="c" d="M2278.092,3212.775a2.26,2.26,0,0,0,1.757,1.531c6.5,1.179,16.823.23,21.158-.259a1.834,1.834,0,0,0,1.672-1.733A152.231,152.231,0,0,1,2278.092,3212.775Z" transform="translate(-2100.047 -2927.466)"/><path class="d" d="M2277.9,2991.191l2.345,9.739a1.753,1.753,0,0,0,1.577,1.31,18.119,18.119,0,0,0,3.633-.05,2.042,2.042,0,0,0,1.838-2.352l-1.63-8.647Z" transform="translate(-2099.871 -2729.196)"/><path class="e" d="M2653.312,3204.152c-6.115-.148-9.278-.769-10.913-1.345,0,.524,0,1.058.019,1.611a1.124,1.124,0,0,0,1.152,1.059l33.573-.187a1.325,1.325,0,0,0,1.233-1.926C2673.976,3203.678,2662.764,3204.38,2653.312,3204.152Z" transform="translate(-2426.702 -2918.941)"/><path class="f" d="M2678.391,3085.078a1.255,1.255,0,0,0-.133-.219c-2.965-3.574-10.517-10.692-25.439-13.779l-7.159-.195s-3.187,4.78-3.248,13.634c1.635.576,4.8,1.2,10.913,1.345C2662.777,3086.094,2673.989,3085.392,2678.391,3085.078Z" transform="translate(-2426.715 -2800.654)"/><path class="g" d="M2660.992,2967.327c.08.46,1.061,7.457,1.441,10.17a1.449,1.449,0,0,0,1.314,1.214,18.97,18.97,0,0,0,4.917-.065,1.894,1.894,0,0,0,1.6-1.833v-10.983Z" transform="translate(-2443.374 -2706.455)"/><path class="h" d="M2210.784,1744.832s17.266,56.611,16.954,127.85a2.892,2.892,0,0,1-2.536,2.687,42.9,42.9,0,0,1-8,.8,2.857,2.857,0,0,1-2.826-2.136c-2.421-12.249-13.979-82.65-21.9-93.852,0,0-7.543,62.855-5.879,94.74a1.6,1.6,0,0,1-1.545,1.572,34.068,34.068,0,0,1-6.426-.015,2.225,2.225,0,0,1-2.088-1.717c-1.725-10.367-11.65-72.071-11.228-116.521.024-2.507,7.684-13.406,7.684-13.406Z" transform="translate(-1998.91 -1611.648)"/><path class="i" d="M1996,896.176c21.477-13.371,53.818-6.6,66.328-5.244a17.626,17.626,0,0,1,10.556,4.889c10.72,10.7,37.3,52.577-5.757,73.229-2.871-2.088-3.631-8.013-6.18-12.75,6.159-7.77,9.81-15.485,3.39-27.159a24.346,24.346,0,0,1-.82,2.743c-8.848,24.183-9.32,44.307-9.3,48.945a1.549,1.549,0,0,1-1.113,1.431c-11.645,4.026-34.061,1.63-41.585.662a2.254,2.254,0,0,1-2.117-2.478c3.693-23.082-15.26-61.054-20.266-70.565C1988.777,909.2,1993.168,901.758,1996,896.176Z" transform="translate(-1840.937 -843.384)"/><path class="j" d="M2306.078,681.126l-2.434,17.06a2.975,2.975,0,0,0,2.452,3.326c3.329.621,9.076,1.153,14.383-1a3.39,3.39,0,0,0,2.064-4.046l-3.9-21.357Z" transform="translate(-2122.932 -652.485)"/><g transform="translate(165.196 0)"><path class="k" d="M2212.591,542.868c-.133.375.321,25.423.321,25.423l15.585-2.357,3.415-24.247S2214.819,536.591,2212.591,542.868Z" transform="translate(-2206.49 -531.098)"/><path class="l" d="M2173.98,470.516a1.756,1.756,0,0,1,.773,1.581l-.718,12.584a2,2,0,0,1-.115.567c-.373,1.033-1.836,4.265-5.225,3.114-2.888-.982-5.562-1.845-7.692-1.581a2.476,2.476,0,0,0-2.2,2.366,68.6,68.6,0,0,0,1.093,11.173,1.943,1.943,0,0,0,2.428,1.379,72.516,72.516,0,0,0,13.724-4.2,2.464,2.464,0,0,0,1.449-1.812c.519-3.372,2.013-12.823,2.873-15.483.8-2.471,4.264-3.813,5.888-4.317a2.64,2.64,0,0,0,1.471-1.133c.973-1.6,2.331-4.947-1.877-6.682a1.83,1.83,0,0,1-.814-2.677c1.039-1.864,1.726-4.6-1.616-6.341-3.384-1.762-6.521-.209-8.421,1.231a2.519,2.519,0,0,1-2.792.274,1.52,1.52,0,0,0-1.448-.073,2,2,0,0,1-2.751-1c-.611-1.784-2.141-3.658-5.911-3.271-6.915.709-9.061,7.655-8.106,11.847s8.458,3.031,12.477,1.166C2169.415,467.859,2172.533,469.532,2173.98,470.516Z" transform="translate(-2153.771 -456.165)"/><path class="m" d="M2405.708,649.479s-1.313-7.411,1.87-9.032,7.191-.467,5.225,4.741C2410.355,651.665,2405.708,649.479,2405.708,649.479Z" transform="translate(-2379.429 -620.79)"/></g><path class="n" d="M2717.707,1055.051c4.693-11.081,2.991-24.462,2.973-24.6l-1.293.127c.017.132,1.683,13.256-2.9,24.083Z" transform="translate(-2493.131 -971.102)"/><g transform="translate(130.417 52.827)"><path class="o" d="M1817.409,1608a224.9,224.9,0,0,0,.53,25.715l7.349.792s3.035-11.519,7.775-24.975A37.9,37.9,0,0,1,1817.409,1608Z" transform="translate(-1817.252 -1541.781)"/><path class="p" d="M1855.12,995.836s-1.837-22.19-11.942-28.53c0,0-22.329,13.854-24.413,66.215a37.9,37.9,0,0,0,15.653,1.532C1839.779,1019.837,1847.32,1002.145,1855.12,995.836Z" transform="translate(-1818.61 -967.306)"/></g><path class="q" d="M1787.275,1812.412s4.593,1.585,5.512,7.925-4.593,11.095-9.186,10.3-9.516-12.68-1.084-18.228S1787.275,1812.412,1787.275,1812.412Z" transform="translate(-1651.579 -1670.033)"/><path class="r" d="M699.18,615.85a76.142,76.142,0,0,1-15.651,8.815c-5.073,2.1-14.942,5.206-16.245,14.276-.672,4.682-4.689,8.433-10.095,9.148-13.465,1.78-34.216,7.812-37.535,27.981-2.534,15.395,6.563,21.232,16.109,23.252,7.012,1.484,11.672,7.368,10.253,13.475-1.36,5.858.668,12.63,12.431,17.985,26.36,12,52.684-28.429,52.684-28.429l5.395-70.591Z" transform="translate(-612.623 -599.346)"/><path class="s" d="M728.446,871.045a2.6,2.6,0,0,1-1.2-.362,16.193,16.193,0,0,1-7.961-17.323,15.851,15.851,0,0,1,6.54-9.816,30.789,30.789,0,0,1,7.888-3.492c4.542-1.481,9.221-2.786,13.906-3.878l1.159-.267a47.359,47.359,0,0,0,8.153-2.392c3.3-1.426,5.708-3.5,6.778-5.842a15.334,15.334,0,0,0,1.039-4.617,12.381,12.381,0,0,1,1.556-5.533.043.043,0,1,1,.073.048,12.32,12.32,0,0,0-1.543,5.5,15.4,15.4,0,0,1-1.046,4.643c-1.078,2.361-3.5,4.451-6.822,5.886a47.449,47.449,0,0,1-8.167,2.4q-.58.133-1.159.268c-4.682,1.091-9.359,2.4-13.9,3.876a30.7,30.7,0,0,0-7.866,3.481,15.764,15.764,0,0,0-6.5,9.762,16.1,16.1,0,0,0,7.919,17.229c.474.267,1.384.588,1.786.1a.044.044,0,0,1,.061-.005.043.043,0,0,1,.006.061A.863.863,0,0,1,728.446,871.045Z" transform="translate(-702.035 -780.159)"/><path class="s" d="M764.383,1119.114a.043.043,0,0,1-.034-.017,15.123,15.123,0,0,1-3.567-9.275,10.052,10.052,0,0,1,4.943-8.547.044.044,0,0,1,.06.016.043.043,0,0,1-.016.059,9.964,9.964,0,0,0-4.9,8.473,15.039,15.039,0,0,0,3.549,9.22.043.043,0,0,1-.034.07Z" transform="translate(-739.55 -1034.598)"/><path class="t" d="M1568.269,1197.349s14.7,36.455,19.291,68.948l-4.593,3.963s-14.7-41.21-25.72-53.1Z" transform="translate(-1453.701 -1120.748)"/><path class="u" d="M572.855,3115.329l-1,7.067a3.183,3.183,0,0,1-2.968,2.554,60.652,60.652,0,0,1-10.963.148,2.537,2.537,0,0,1-2.433-3.242c1.005-2.728,2.844-6.823,5.495-9.233h9.087A2.573,2.573,0,0,1,572.855,3115.329Z" transform="translate(-555.357 -2838.077)"/><path class="v" d="M1261.177,2337.785l1.534,7.784s-5.136,44.884-6.05,62.837a12.614,12.614,0,0,0,2.413,8l8.931,12.512-22.7-11.555-.452-2.39,3.716-4.408-4.867-50.281a13.674,13.674,0,0,1,2.035-8.532l4.695-7.609Z" transform="translate(-1172.508 -2143.319)"/><path class="w" d="M1264.527,3075.88h-7.243a4.638,4.638,0,0,1-3.461-1.464c-2.258-2.531-6.937-7.47-9.174-7.6-3.011-.174-2.626,9.063-2.626,9.063h-1.688L1238.2,3064.4a6.579,6.579,0,0,1,4.132-7.1h0s.688,4.392,4.421,6.335,15.19,8.9,15.19,8.9a11.971,11.971,0,0,1,2.944.067C1267.168,3072.96,1266.849,3075.88,1264.527,3075.88Z" transform="translate(-1167.535 -2788.473)"/><path class="x" d="M640.546,2345.491s-30.089,49.242-34.872,60.484a96.059,96.059,0,0,0-6.523,21.51c-.1,1.388-2.1,2.719-7.616,2.719-2.846,0-4.24-.984-4.923-1.937a2.447,2.447,0,0,1-.122-2.687c1.74-3.039,7.264-12.75,9.31-17.155,2.442-5.259,7.7-29.092,10.577-37.379s6.138-17.275,18.685-25.555C625.064,2345.491,633.677,2338.213,640.546,2345.491Z" transform="translate(-582.965 -2147.329)"/><path class="y" d="M1193.165,1077.755c7.762-28.375-11.9-44.423-11.9-44.423,12.407-10.274,35.012-14.95,35.012-14.95s21.57,13.605,19.011,24.254c-1.5,6.241-15.161,37.385-15.161,37.385A34.274,34.274,0,0,1,1193.165,1077.755Z" transform="translate(-1116.577 -960.277)"/><path class="z" d="M971.686,1606.909c3.159-8.21,17.208-14.047,17.208-14.047a34.273,34.273,0,0,0,26.96,2.266s2.833,9.343.878,18.025-14.223,64.481-14.223,64.481c-19.33,3.379-49.06-3.4-49.06-3.4C965.762,1655.374,968.527,1615.119,971.686,1606.909Z" transform="translate(-912.306 -1475.384)"/><path class="aa" d="M1327.988,816.723l-6.31,24.454c-.6,2.154,1.672,1.8,4.2,1.391,4.134-.672,9.462-2.057,11.243-4.832a2.376,2.376,0,0,0,.323-.921l2.711-16.957a3,3,0,0,0-2.067-3.2l-5.231-2A3.666,3.666,0,0,0,1327.988,816.723Z" transform="translate(-1242.39 -777.368)"/><g transform="translate(77.172 11.648)"><path class="ab" d="M1393.836,658.362s4.8,6.125,3.793,16.477-6.686,11.952-11.074,9.974a23.493,23.493,0,0,1-13.366-14.634C1370.219,661.287,1387.423,650.658,1393.836,658.362Z" transform="translate(-1365.532 -646.73)"/><path class="ac" d="M1316.867,590.815s2.994-14.215,14.992-7.1l1.666,3.353s8.685-3.6,3.576-10.959-15.2-10-23.855-3.732-12.922,11.389-10.526,18.368,7.527,3.846,7.527,3.846-.258-5.32,2.208-6.58,3.444,2.669,3.444,2.669Z" transform="translate(-1302.06 -568.865)"/><path class="ad" d="M1378.469,744.146s1.588-7.295-3.242-6.946-1.078,6.975.533,9.363Z" transform="translate(-1365.531 -719.792)"/></g><g transform="translate(89.816 106.573)"><path class="ae" d="M1726.269,1507.8s-1.137-6.051,3.527-7.355c0,0-2.113-6.98,4.491-6.958,0,0,11.291-14.037,20.4.352,0,0,20.381,1.235,12.32,16.669,0,0,5.343,4.781-2.431,8.636,0,0-6.284,18.891-20.447,6.713Z" transform="translate(-1694.962 -1487.353)"/><path class="af" d="M2104.694,1539.535c-4.229-4.343-7.29,1.49-7.29,1.49-3.4,1.147,0,8.465,0,8.466-2.084,4.038-12.955,24.794-18.848,29.915-6.537,5.68,3.977,7.16,3.977,7.16s11.748-5.5,18.334-35.409a.576.576,0,0,0,.154-.078C2101.92,1550.393,2108.923,1543.878,2104.694,1539.535Z" transform="translate(-2009.029 -1532.701)"/><path class="ag" d="M1451.929,1580.349c-5.3-4.607-15.178-24.062-18.721-31.249.641-1.518,2.765-7.086-.171-8.075,0,0-3.061-5.833-7.29-1.49-3.9,4.006,1.752,9.856,3.358,11.279,3.331,16.842,15.46,35.747,15.46,35.747S1458.466,1586.029,1451.929,1580.349Z" transform="translate(-1424.401 -1532.701)"/><path class="ah" d="M1761.878,3174.2a26.508,26.508,0,0,1,.883,6.119.831.831,0,0,1-.718.8c-2.376.328-10.486,1.3-14.941,0a.824.824,0,0,1-.594-.812c.041-1.4,1.025-4.681,9.163-5.519Z" transform="translate(-1713.218 -2999.862)"/><path class="ai" d="M1758.95,2653.323c-1,.654,6.554,53.711,8.385,54.1,0,0,2.094,1.946,5.325-.272-1.865-17.292-3-34.832-2-52.757Z" transform="translate(-1724.293 -2532.82)"/><path class="aj" d="M1936.966,3174.2a26.5,26.5,0,0,1,.883,6.119.831.831,0,0,1-.718.8c-2.376.328-10.486,1.3-14.941,0a.824.824,0,0,1-.594-.812c.041-1.4,1.025-4.681,9.163-5.519Z" transform="translate(-1870.211 -2999.862)"/><path class="ak" d="M1934.039,2653.323c-1,.654,6.554,53.711,8.385,54.1,0,0,2.094,1.946,5.325-.272-1.865-17.292-3-34.832-2-52.757Z" transform="translate(-1881.286 -2532.82)"/><path class="al" d="M1751.461,2341.738s-24.64,1.127-30.509,3.188c0,0,.723,20.033,3.132,32.344a1.23,1.23,0,0,0,.928.966c1.581.367,5.561.891,11.869-.876a1.232,1.232,0,0,0,.894-1.271l-.651-7.979a.973.973,0,0,1,.9-1.037l.66-.1a.972.972,0,0,1,1.039.961l1.246,8.093a1.23,1.23,0,0,0,.835,1.155,21.5,21.5,0,0,0,13.028-.138,1.229,1.229,0,0,0,.871-1.164C1755.771,2366.057,1754.006,2354.309,1751.461,2341.738Z" transform="translate(-1690.303 -2253.437)"/><path class="am" d="M1926.78,2353.106s3.115,8.66,10.631,9.26l-1.662-9.876A56.767,56.767,0,0,0,1926.78,2353.106Z" transform="translate(-1874.859 -2263.078)"/><path class="an" d="M1624.12,1888.438s-11.137,7.159-24.66,6.364c-11.278-.663-18.13-3.54-21.94-6.784a4.03,4.03,0,0,0-4.8-.381,34.2,34.2,0,0,0-6.142,5.114,1.847,1.847,0,0,0-.256,2.241c3.285,5.307,6.788,9.017,10.5,11.175a7.265,7.265,0,0,1,1.882,5.072l-.686,26.068a1.469,1.469,0,0,0,1.193,1.487c4.943.938,23.7,4.2,35.366,2.146v-28.116a5.736,5.736,0,0,1,2.983-5.006,30.808,30.808,0,0,0,9.744-9.039Z" transform="translate(-1551.411 -1845.71)"/><path class="ao" d="M1837.281,1842.611l1.222,13.422s-7.084,4.139-13.179.521l1.083-11.723Z" transform="translate(-1783.889 -1805.895)"/><path class="ap" d="M1702.893,1601.653s-21.4,16-9.315,27.56c11.408,10.906,22.1-.979,22.1-.979s8.175-4.053,7.869-9.529S1707.215,1600.257,1702.893,1601.653Z" transform="translate(-1662.441 -1589.746)"/><path class="aq" d="M1806.346,1595.268a4.483,4.483,0,0,1-2-1.995,6.481,6.481,0,0,1-.418-4.765,1.564,1.564,0,0,0,.035-1.22c-.263-.432-.865-.449-1.368-.5a4.5,4.5,0,0,1-3.257-7.007c-2.066-.534-2.291-2.159-3.755-3.173-1.344-.932-3.28-.14-4.759-.747-1.09-.447-3.353-2.111-3.045-3.569.138-.652,2.021-2.036,2.63-2.466,2.728-1.929,5.7-1.351,8.117.828,6.963,6.289,13.2,12.383,14.527,15.565a7.447,7.447,0,0,1-.6,7.094A5.086,5.086,0,0,1,1806.346,1595.268Z" transform="translate(-1750.197 -1560.25)"/><path class="ar" d="M1915.73,1821.281l4.794-5.789s5.443-.48,3.535,2.919S1917.236,1822.311,1915.73,1821.281Z" transform="translate(-1864.951 -1781.559)"/></g><path class="as" d="M1047.085,1163.1a7.257,7.257,0,0,0-7.16.715c-3.977,2.9-13.107,11.553-14.061,30.472-1.223,24.264,41.575,17.934,41.575,17.934l2.446-5.275s-30.57-1.055-30.57-11.6c0-7.43,8.877-16.066,12.822-19.537a4.837,4.837,0,0,0,1.62-5.052A13.364,13.364,0,0,0,1047.085,1163.1Z" transform="translate(-977.214 -1089.471)"/><path class="at" d="M1393.37,1561.3a61.646,61.646,0,0,1,8.053-3.169c3.668-1.055,4.891,0,4.891,0s-3.668,1.055-4.891,2.11,5.854,1.063,8.429,1.059,3.03,5.184.357,6.81a14.293,14.293,0,0,1-17.346-1.539Z" transform="translate(-1306.308 -1443.824)"/><path class="au" d="M2434.06,1547.156c1.128,4.51,3.84,9.549,5.869,12.913a93.094,93.094,0,0,1-24.8,2.133c-1.852-.061-3.2-.229-4.816.68l-3.1,2.1-2.326-12.284S2420.986,1554.081,2434.06,1547.156Z" transform="translate(-2213.737 -1434.402)"/><path class="av" d="M2262.888,1556.148c-3.15,2.5-10.693,1.744-14.618.685-4.765-1.089-5.7-3.824-5.1-7.213a37.2,37.2,0,0,0,12.25-6.688c-.758-3.648-2.31-4.783-4.15-5,6.015,1.5,10.761,3.739,13.369,7.241Z" transform="translate(-2068.589 -1426.128)"/></g><path class="aw" d="M1777.446,608.684c-.273-5.124-3.755-9.43-8.092-9.975a8.079,8.079,0,0,0-8.152,4.671c-1.638-3.31-4.735-5.566-8.25-5.471-4.469.122-8.1,4.18-8.386,9.4a11.743,11.743,0,0,0,3.119,8.76l12.617,10.276a1.422,1.422,0,0,0,1.8.051l12.358-9.376A10.865,10.865,0,0,0,1777.446,608.684Z" transform="translate(-1141.61 -127.093)"/></g></svg>