<svg xmlns="http://www.w3.org/2000/svg" xmlns:xlink="http://www.w3.org/1999/xlink" width="278.514" height="279.816" viewBox="0 0 278.514 279.816"><defs><style>.a{opacity:0.3;fill:url(#a);}.b{fill:url(#b);}.c{fill:url(#c);}.d{fill:url(#d);}.e{fill:url(#e);}.f{fill:#f0f0f0;}.g{fill:url(#f);}.az,.bg,.h{fill:#fff;}.h{opacity:0.36;}.i{fill:url(#g);}.j{fill:url(#h);}.k{fill:url(#i);}.l{fill:url(#j);}.m{fill:url(#k);}.n{fill:url(#l);}.o{fill:url(#m);}.p{fill:url(#n);}.q{fill:url(#o);}.r{fill:url(#p);}.s{fill:url(#q);}.t{fill:url(#r);}.u{fill:url(#s);}.v{fill:url(#t);}.aa,.ah,.ai,.aj,.ak,.al,.am,.an,.ao,.ap,.aq,.ar,.as,.at,.au,.aw,.ax,.w,.x,.y,.z{fill-rule:evenodd;}.w{fill:url(#u);}.x{fill:url(#v);}.y{fill:url(#w);}.z{fill:url(#x);}.aa{fill:url(#y);}.ab{fill:url(#z);}.ac{fill:url(#aa);}.ad{fill:url(#ab);}.ae{fill:url(#ac);}.af{fill:url(#ad);}.ag{fill:url(#ae);}.ah{fill:url(#af);}.ai{fill:url(#ag);}.aj{fill:url(#ah);}.ak{fill:url(#ai);}.al{fill:url(#aj);}.am{fill:url(#ak);}.an{fill:url(#al);}.ao{fill:url(#am);}.ap{fill:url(#an);}.aq{fill:url(#ao);}.ar{fill:url(#ap);}.as{fill:url(#aq);}.at{fill:url(#ar);}.au{fill:url(#as);}.av{fill:url(#at);}.aw{fill:url(#au);}.ax{fill:url(#av);}.ay{fill:url(#aw);}.az{opacity:0.5;}.ba{fill:url(#ax);}.bb{fill:url(#ay);}.bc{fill:url(#az);}.bd{fill:url(#ba);}.be{fill:url(#bb);}.bf{fill:url(#bc);}.bh{fill:url(#bd);}.bi{fill:url(#be);}.bj{fill:url(#bf);}.bk{fill:url(#bg);}.bl{fill:url(#bh);}.bm{fill:url(#bi);}.bn{fill:url(#bj);}.bo{fill:url(#bk);}.bp{fill:url(#bl);}.bq{fill:url(#bm);}.br{fill:url(#bn);}</style><linearGradient id="a" x1="1.061" y1="1.13" x2="0.324" y2="0.337" gradientUnits="objectBoundingBox"><stop offset="0" stop-color="#b37cff"/><stop offset="1" stop-color="#f895e7"/></linearGradient><linearGradient id="b" x1="-9.354" y1="0.982" x2="-8.976" y2="0.162" gradientUnits="objectBoundingBox"><stop offset="0" stop-color="#a737d5"/><stop offset="1" stop-color="#ef497a"/></linearGradient><linearGradient id="c" x1="8.673" y1="0.004" x2="7.449" y2="0.994" gradientUnits="objectBoundingBox"><stop offset="0" stop-color="#2b3582"/><stop offset="1" stop-color="#150e42"/></linearGradient><linearGradient id="d" x1="-9.045" y1="1.118" x2="-9.943" y2="0.278" gradientUnits="objectBoundingBox"><stop offset="0" stop-color="#233894"/><stop offset="0.996" stop-color="#dd397a"/></linearGradient><linearGradient id="e" x1="8.109" y1="-0.007" x2="7.409" y2="1.009" xlink:href="#c"/><linearGradient id="f" x1="-4.212" y1="0.949" x2="-4.806" y2="2.766" gradientUnits="objectBoundingBox"><stop offset="0" stop-color="#53d8ff"/><stop offset="1" stop-color="#3840f7"/></linearGradient><linearGradient id="g" x1="-24.62" y1="2.322" x2="-38.018" y2="21.508" xlink:href="#f"/><linearGradient id="h" x1="-56.571" y1="2.939" x2="-89.785" y2="48.382" xlink:href="#f"/><linearGradient id="i" x1="-66.816" y1="-1.04" x2="-67.534" y2="1.083" gradientUnits="objectBoundingBox"><stop offset="0" stop-color="#ce1567"/><stop offset="1" stop-color="#7a1dbc"/></linearGradient><linearGradient id="j" x1="-37.284" y1="-0.426" x2="-36.755" y2="2.501" gradientUnits="objectBoundingBox"><stop offset="0" stop-color="#f9b776"/><stop offset="1" stop-color="#f47960"/></linearGradient><linearGradient id="k" x1="19.382" y1="0.405" x2="19.47" y2="2.856" gradientUnits="objectBoundingBox"><stop offset="0" stop-color="#fdf53f"/><stop offset="1" stop-color="#d93c65"/></linearGradient><linearGradient id="l" x1="57.654" y1="-1.204" x2="58.695" y2="-1.204" gradientUnits="objectBoundingBox"><stop offset="0" stop-color="#2c759e"/><stop offset="1" stop-color="#051042"/></linearGradient><linearGradient id="m" x1="335.319" y1="-1.379" x2="330.025" y2="-1.404" gradientUnits="objectBoundingBox"><stop offset="0" stop-color="#53eac9"/><stop offset="0.996" stop-color="#45aed8"/></linearGradient><linearGradient id="n" x1="183.006" y1="-4.058" x2="179.566" y2="3.366" xlink:href="#j"/><linearGradient id="o" x1="-157.318" y1="-3.9" x2="-156.273" y2="-3.9" xlink:href="#l"/><linearGradient id="p" x1="-873.928" y1="-4.249" x2="-879.049" y2="-4.273" xlink:href="#m"/><linearGradient id="q" x1="186.632" y1="-6.36" x2="183.144" y2="1.144" xlink:href="#j"/><linearGradient id="r" x1="17.473" y1="-0.294" x2="16.659" y2="1.012" xlink:href="#c"/><linearGradient id="s" x1="17.925" y1="0.898" x2="17.7" y2="-0.262" xlink:href="#c"/><linearGradient id="t" x1="51.131" y1="1.753" x2="51.109" y2="-0.794" xlink:href="#j"/><linearGradient id="u" x1="-39.042" y1="-10.952" x2="-38.368" y2="-9.31" gradientUnits="objectBoundingBox"><stop offset="0" stop-color="#cb236d"/><stop offset="1" stop-color="#4c246d"/></linearGradient><linearGradient id="v" x1="-48.52" y1="-9.019" x2="-48.672" y2="-10.29" xlink:href="#j"/><linearGradient id="w" x1="-529.495" y1="-42.895" x2="-531.176" y2="-48.711" xlink:href="#j"/><linearGradient id="x" x1="-49.27" y1="-17.596" x2="-48.421" y2="-15.017" xlink:href="#u"/><linearGradient id="y" x1="-255.161" y1="-33.818" x2="-255.942" y2="-38.397" xlink:href="#j"/><linearGradient id="z" x1="-129.464" y1="-0.211" x2="-127.771" y2="2.297" xlink:href="#j"/><linearGradient id="aa" x1="-104.629" y1="0.041" x2="-104.137" y2="1.874" xlink:href="#j"/><linearGradient id="ab" x1="-73.986" y1="0.063" x2="-74.79" y2="0.956" xlink:href="#b"/><linearGradient id="ac" x1="-101.203" y1="-0.128" x2="-100.472" y2="2.082" xlink:href="#j"/><linearGradient id="ad" x1="-68.35" y1="-0.405" x2="-68.745" y2="1.628" xlink:href="#i"/><linearGradient id="ae" x1="-66.602" y1="1.13" x2="-65.61" y2="1.13" xlink:href="#k"/><linearGradient id="af" x1="-36.27" y1="-0.804" x2="-36.772" y2="0.916" xlink:href="#j"/><linearGradient id="ag" x1="-69.192" y1="1.924" x2="-68.971" y2="0.366" xlink:href="#u"/><linearGradient id="ah" x1="-35.98" y1="-0.362" x2="-37.112" y2="2.192" xlink:href="#j"/><linearGradient id="ai" x1="-68.551" y1="-0.216" x2="-68.329" y2="1.538" xlink:href="#u"/><linearGradient id="aj" x1="-37.034" y1="0.012" x2="-35.572" y2="1.962" xlink:href="#u"/><linearGradient id="ak" x1="-85.074" y1="0.05" x2="-84.683" y2="0.979" xlink:href="#j"/><linearGradient id="al" x1="-14.194" y1="-0.215" x2="-13.905" y2="4.06" xlink:href="#c"/><linearGradient id="am" x1="35.56" y1="-0.16" x2="34.425" y2="2.447" xlink:href="#u"/><linearGradient id="an" x1="37.302" y1="-3.674" x2="37.116" y2="-0.865" xlink:href="#u"/><linearGradient id="ao" x1="-105.425" y1="2.032" x2="-104.842" y2="0.212" xlink:href="#j"/><linearGradient id="ap" x1="-52.177" y1="5.664" x2="-49.027" y2="3.89" xlink:href="#j"/><linearGradient id="aq" x1="-227.097" y1="-9.053" x2="-212.269" y2="-16.173" xlink:href="#j"/><linearGradient id="ar" x1="-49.094" y1="-0.9" x2="-48.155" y2="10.902" xlink:href="#c"/><linearGradient id="as" x1="-51.247" y1="0.054" x2="-50.98" y2="1.003" xlink:href="#j"/><linearGradient id="at" x1="-80.804" y1="0.5" x2="-79.804" y2="0.5" gradientUnits="objectBoundingBox"><stop offset="0" stop-color="#7c27dd"/><stop offset="1" stop-color="#2b41d9"/></linearGradient><linearGradient id="au" x1="-154.922" y1="0.014" x2="-154.703" y2="1.026" xlink:href="#j"/><linearGradient id="av" x1="-155.075" y1="0.077" x2="-154.85" y2="0.902" xlink:href="#j"/><linearGradient id="aw" x1="-0.111" y1="1.028" x2="0.392" y2="0.656" xlink:href="#b"/><linearGradient id="ax" x1="2.381" y1="0.07" x2="2.157" y2="2.234" xlink:href="#f"/><linearGradient id="ay" x1="-12.13" y1="0.129" x2="-12.984" y2="3.341" xlink:href="#j"/><linearGradient id="az" x1="-10.789" y1="-7.526" x2="-11.881" y2="-6.245" xlink:href="#j"/><linearGradient id="ba" x1="-8.16" y1="-4.561" x2="-7.233" y2="-4.561" xlink:href="#c"/><linearGradient id="bb" x1="-37.312" y1="-23.59" x2="-34.819" y2="-26.216" xlink:href="#j"/><linearGradient id="bc" x1="2.967" y1="-0.022" x2="1.909" y2="1.075" xlink:href="#c"/><linearGradient id="bd" x1="0.202" y1="0.804" x2="-1.738" y2="2.633" xlink:href="#k"/><linearGradient id="be" x1="0.846" y1="-1.616" x2="0.269" y2="2.42" xlink:href="#d"/><linearGradient id="bf" x1="-29.491" y1="2.237" x2="-29.215" y2="1.201" xlink:href="#j"/><linearGradient id="bg" x1="-19.24" y1="-0.387" x2="-17.728" y2="-2.669" xlink:href="#j"/><linearGradient id="bh" x1="6.449" y1="0.107" x2="3.323" y2="4.012" xlink:href="#c"/><linearGradient id="bi" x1="-70.865" y1="-2.09" x2="-65.228" y2="-9.334" xlink:href="#j"/><linearGradient id="bj" x1="-2.949" y1="0.504" x2="-4.159" y2="1.816" xlink:href="#j"/><linearGradient id="bk" x1="-9.777" y1="-1.176" x2="-12.579" y2="3.774" xlink:href="#j"/><linearGradient id="bl" x1="-8.109" y1="-20.363" x2="-8.841" y2="-9.133" xlink:href="#j"/><linearGradient id="bm" x1="-4.821" y1="-5.359" x2="-5.178" y2="-2.109" xlink:href="#f"/><linearGradient id="bn" x1="-11.386" y1="-26.373" x2="-12.242" y2="-14.073" xlink:href="#j"/></defs><g transform="translate(-471.061 -454.108)"><path class="a" d="M751.136,643.23c-27.993,65.429-101.884,93.533-159.779,88.741-15.808-1.308-47.613-3.941-72.447-27.425-47.692-45.1-40.347-139.374,5.308-194.877,5.879-7.148,46.576-55.036,109.994-54.395,46.431.469,79.02,26.7,82.983,29.965a127.817,127.817,0,0,1,26,29.5C766.573,551.3,768.629,602.343,751.136,643.23Z" transform="translate(-13.795 -1.043)"/><g transform="translate(637.322 515.004)"><path class="b" d="M2148.53,1270.368c13.985,2.8,31.845-12.451,37.6-29.109,5.921-17.142-4.935-24.323-4.852-48.11.1-27.021,14.151-31.094,23.449-67.516,2.1-8.218,14.237-55.772-.809-64.686-13.911-8.242-52.986,15.411-59.834,45.684-4.884,21.586,10.213,30.65,4.447,55.792-5.059,22.06-18.354,22.379-23.448,43.663C2118.879,1232,2130.167,1266.7,2148.53,1270.368Z" transform="translate(-2123.368 -1059.291)"/><path class="c" d="M2374.362,1694.909c-3.77-29.113,3.585-74.028,10.418-106.58,7.4-35.244,15.8-63.991,15.88-64.277l1.164.342c-.084.286-8.47,29-15.859,64.194-6.813,32.458-14.149,77.224-10.4,106.167Z" transform="translate(-2348.185 -1477.285)"/></g><g transform="translate(660.831 594.307)"><path class="d" d="M2374.338,1979.23c-16.54-8.618-22.2-38.21-12.8-47.828,6.353-6.5,15.462.337,24.251-6.4,11.221-8.6,2.967-24.8,11.789-45.807,7.508-17.878,25.516-34.8,36.04-31.324,11.016,3.633,16.818,30.593,7.41,46.818-6.118,10.551-15.483,11.069-17.514,20.883-2.357,11.387,9.032,16.58,9.094,27.619C2432.719,1963.021,2396.219,1990.631,2374.338,1979.23Z" transform="translate(-2357.002 -1847.415)"/><path class="e" d="M2611.973,2341.729a.674.674,0,0,1-.605-.968c21.927-45.183,28.356-97.6,28.419-98.123a.674.674,0,0,1,1.338.159c-.063.527-6.52,53.168-28.545,98.552A.674.674,0,0,1,2611.973,2341.729Z" transform="translate(-2585.711 -2202.335)"/><path class="f" d="M3062.187,1950.314a.322.322,0,0,1-.254-.52c6.921-8.884,14.592-22.231,11.831-35.365a23.02,23.02,0,0,0-6.32-11.942.322.322,0,1,1,.421-.487,23.265,23.265,0,0,1,6.529,12.3c1.552,7.383.739,19.6-11.953,35.893A.322.322,0,0,1,3062.187,1950.314Z" transform="translate(-2990.939 -1896.437)"/><path class="f" d="M2404.29,2721.491a.322.322,0,0,1-.266-.14c-10.636-15.523-14.263-27.518-10.781-35.65,3.1-7.23,10.916-8.576,10.995-8.589a.322.322,0,0,1,.1.635c-.075.012-7.556,1.309-10.509,8.215-3.385,7.917.223,19.7,10.723,35.025a.322.322,0,0,1-.265.5Z" transform="translate(-2388.445 -2593.621)"/></g><g transform="translate(587.96 454.108)"><path class="g" d="M1741.542,505.484c34.23,9.759,77.152,41.364,35.907,40.253s-12.54,22.674-37.706,25.627-64.639,3.957-93.311-15.052-4.775-28,5.644-28.611C1686.378,525.691,1645.386,478.072,1741.542,505.484Z" transform="translate(-1632.814 -492.685)"/><path class="h" d="M1812.681,537.734c30.317,8.777,68.358,37.111,31.843,36.06s-11.07,20.267-33.345,22.874-57.218,3.45-82.627-13.595-4.266-25.056,4.957-25.587C1763.874,555.735,1727.519,513.078,1812.681,537.734Z" transform="translate(-1708.056 -522.437)"/><path class="i" d="M1736.933,1313.161c2.027,2.489,7.137,5.177,11.25,1.827s5.672-11.47,3.644-13.959-7.005-1.791-11.118,1.559S1734.905,1310.672,1736.933,1313.161Z" transform="translate(-1725.685 -1214.467)"/><path class="j" d="M1660.236,1524.768a2.913,2.913,0,0,0,4.105.286c1.286-1.047,2.846-4.37,1.864-5.576s-3.558-1.159-4.844-.112S1659.254,1523.563,1660.236,1524.768Z" transform="translate(-1657.087 -1411.467)"/><g transform="translate(7.416 0)"><g transform="translate(51.935 4.941)"><g transform="translate(5.209 36.908)"><path class="k" d="M2275.454,881.092l9.375.327a1.086,1.086,0,0,0,1.123-1.137l-.44-9.248a1.086,1.086,0,0,0-1.085-1.034h-8.935a1.086,1.086,0,0,0-1.086,1.086v8.922A1.086,1.086,0,0,0,2275.454,881.092Z" transform="translate(-2274.406 -869.999)"/></g><path class="l" d="M2422.728,799.715s-9.366,9.748-15.291,0l-1.72,2.676s6.881,14.144,21.79,1.72Z" transform="translate(-2387.294 -769.879)"/><path class="m" d="M2565.4,720.322a12.31,12.31,0,0,1,3.742-1.741c.5-.137,3.216.652,4.894.613,2.3-.053,4.646-1.1,6.544-.628a13.693,13.693,0,0,1,4.32,1.717c2.667,1.9,4.233,5.434,5.187,8.937a12.208,12.208,0,0,1-4.081,2.679l-.42,17.029-10.29,3.115-11.273-3.733.412-16.642s-4.736-4.047-5-4.665S2562.182,722.536,2565.4,720.322Z" transform="translate(-2525.529 -696.787)"/><g transform="translate(59.767 54.206)"><path class="n" d="M2839.166,1043.221c-2.527-.58-8.368-.268-8.368-.268l-.238.643-.393,3.2a66.471,66.471,0,0,0,8.3,1,2.583,2.583,0,0,0,.77-.115c.083-.075.165-.153.242-.237A3.014,3.014,0,0,0,2839.166,1043.221Z" transform="translate(-2828.802 -1042.772)"/><path class="o" d="M2919.846,1046.43c-.079-.022-.163-.043-.25-.063a3.014,3.014,0,0,1,.317,4.221c-.077.084-.159.162-.243.237C2921.727,1050.185,2921.971,1047.028,2919.846,1046.43Z" transform="translate(-2909.232 -1045.919)"/><path class="p" d="M2816.921,1041.912l.989.042a1.9,1.9,0,0,1,1.389.718,2.344,2.344,0,0,1,.51,1.6,1.846,1.846,0,0,1-.535,1.22,1.5,1.5,0,0,1-1.157.439l-1.513-.108Z" transform="translate(-2816.604 -1041.912)"/></g><g transform="translate(25.042 54.121)"><path class="q" d="M2479.431,1041.288c2.54-.5,8.371-.011,8.371-.011l.221.651.314,3.208a66.356,66.356,0,0,1-8.326.745,2.594,2.594,0,0,1-.766-.138c-.082-.078-.161-.158-.236-.245A3.01,3.01,0,0,1,2479.431,1041.288Z" transform="translate(-2477.644 -1041.061)"/><path class="r" d="M2473.042,1043.366c.08-.02.164-.038.252-.056a3.01,3.01,0,0,0-.422,4.209c.075.087.155.167.236.245C2471.068,1047.061,2470.9,1043.9,2473.042,1043.366Z" transform="translate(-2471.506 -1043.084)"/><path class="s" d="M2562.834,1041.92l-.99.012a1.893,1.893,0,0,0-1.407.675,2.333,2.333,0,0,0-.549,1.587,1.857,1.857,0,0,0,.5,1.236,1.507,1.507,0,0,0,1.146.475l1.515-.061Z" transform="translate(-2550.994 -1041.834)"/></g><path class="t" d="M2615.5,924.457c-1.146-2.638-3.949-3.066-6.335-1.832-.042.055-15.15,7.8-28.474,11.192a14.484,14.484,0,0,1,.62,3.8q.011.427-.014.843c10.218-.525,21.307-3.932,30.835-6.927A5.267,5.267,0,0,0,2615.5,924.457Z" transform="translate(-2544.661 -879.827)"/><path class="u" d="M2530.462,934.6a8.789,8.789,0,0,1,.86-4.117c.018-.058.039-.114.057-.171-.761-.236-1.744-.555-3.035-.993a145.645,145.645,0,0,1-23.568-10.271c-2.676-1.462-5.719-.482-6.576,2.684a4.962,4.962,0,0,0,3.463,6.088c7.625,2.537,3.655,1.833,6.146,2.634a104.218,104.218,0,0,0,22.669,4.466C2530.472,934.813,2530.466,934.706,2530.462,934.6Z" transform="translate(-2470.305 -876.607)"/><path class="v" d="M2656.089,680.653a5.836,5.836,0,0,0,5.958,4.318c5.032-.092,5.48-4.332,5.48-4.332l-3.287-.7-.275-3.662-4.944.366-.092,3.479Z" transform="translate(-2612.474 -658.859)"/><path class="w" d="M2611.377,515.614s-2.021-2.077-.5-3.728a3.151,3.151,0,0,1-.015-3.81s1.3-7.355,8.657-3.985c0,0,4.957-2.7,8.257,3.381a2.82,2.82,0,0,1,1.791,3.169s2.394,8.9-6.4,7.625Z" transform="translate(-2571.207 -503.208)"/><path class="x" d="M2615.635,560.592s-5.873,10.91,1.385,13.714,10.155-4.868,10.155-4.868,2.693-3.6,1.34-5.943S2617.225,559.016,2615.635,560.592Z" transform="translate(-2574.073 -554.331)"/><path class="y" d="M2608.057,604.57s.3-1.367-.913-1.451.356,3.248.356,3.248Z" transform="translate(-2568.04 -593.064)"/><path class="z" d="M2636.2,549s-7.357-1.345-7.28-5.6a1.574,1.574,0,0,1-1.768-1.118s-3.076,3.562-4.267,1.494c0,0-.076-5.484,4.386-4.268s8.562,2.508,9.854,3.612S2639.744,547.129,2636.2,549Z" transform="translate(-2582.612 -535.702)"/><path class="aa" d="M2742.374,627.339l.82-3.613s2.287-1.423,2.2.5A3.46,3.46,0,0,1,2742.374,627.339Z" transform="translate(-2690.077 -611.142)"/><path class="ab" d="M2759.135,826.1s3.794,15.312-7.866,19.708a7.994,7.994,0,0,1-3.632-1.338,18.691,18.691,0,0,0,7.2-15.775A31.323,31.323,0,0,1,2759.135,826.1Z" transform="translate(-2694.811 -793.609)"/><path class="ac" d="M2706.1,983.68s-3.632-.765-5.161-.956-3.586-.555-2.653-2.762,2.271-1.825,3.991-.87C2703.068,979.531,2707.247,982.341,2706.1,983.68Z" transform="translate(-2650.215 -930.525)"/><g transform="translate(9.629 31.187)"><path class="ad" d="M2319.3,823.3l8.58.3a.994.994,0,0,0,1.027-1.041l-.4-8.463a.994.994,0,0,0-.993-.947h-8.177a.994.994,0,0,0-.994.994V822.3A.994.994,0,0,0,2319.3,823.3Z" transform="translate(-2318.336 -813.145)"/></g><path class="ae" d="M2350.637,787.674c.16-.773.683-3.483,2.077-4.021,2.884-1.114,5.271,1.547,5.271,1.547l.479,2.165a.912.912,0,0,0-.361-.318c-.37,1.422-1.537,2.8-2.124,2.564-.956-.382-.764-.382.191-1.911l.008-.012a.649.649,0,0,0-.6-.978c-1.248.081-2.469.427-2.707.964C2352.395,788.756,2350.478,788.447,2350.637,787.674Z" transform="translate(-2337.75 -755.188)"/><g transform="translate(12.09 47.803)"><path class="af" d="M2343.838,989.367l9.375.327a1.086,1.086,0,0,0,1.123-1.137l-.44-9.248a1.086,1.086,0,0,0-1.085-1.034h-8.935a1.086,1.086,0,0,0-1.086,1.086v8.922A1.086,1.086,0,0,0,2343.838,989.367Z" transform="translate(-2342.79 -978.274)"/></g><g transform="translate(0 47.759)"><path class="ag" d="M2223.795,989.024l9.378.229a1.086,1.086,0,0,0,1.111-1.149l-.536-9.243a1.086,1.086,0,0,0-1.1-1.023l-8.934.093a1.086,1.086,0,0,0-1.075,1.1l.093,8.921A1.086,1.086,0,0,0,2223.795,989.024Z" transform="translate(-2222.643 -977.838)"/></g></g><path class="ah" d="M1960.763,1000.547s-4.779-2.485-17.394.765l-1.147,3.441,8.028,1.338,11.469-.191Z" transform="translate(-1918.505 -944.745)"/><path class="ai" d="M1863.8,1009.458l.131-3.61s-.956-1.338-1.911-1.147-6.5,3.823-7.837,4.4S1856.212,1011.156,1863.8,1009.458Z" transform="translate(-1839.063 -949.282)"/><path class="aj" d="M1932.27,1029.041s-4.778-2.485-17.394.765l-1.147,3.441,8.028,1.338,11.469-.191Z" transform="translate(-1892.878 -970.372)"/><path class="ak" d="M1835.3,1037.951l.131-3.61s-.956-1.338-1.911-1.147-6.5,3.823-7.837,4.4S1827.718,1039.649,1835.3,1037.951Z" transform="translate(-1813.437 -974.907)"/><path class="al" d="M2026.148,842.146l4.07,16.672a7.814,7.814,0,0,1-1.046,6.121h0a3.443,3.443,0,0,1-2.884,1.562h-13.426l-1.788-8.223a22.357,22.357,0,0,1,.093-9.909l1.69-7.124Z" transform="translate(-1979.969 -802.289)"/><path class="am" d="M2161.83,725.632s6.646,8.171,5.734,13.189c-1.147,6.308-8.793,1.338-8.793,1.338l.729-2.321s3.476,3.086,4.049.41-4.205-6.881-4.205-6.881Z" transform="translate(-2113.264 -698.31)"/><path class="an" d="M1708.94,463.865c3.1-5.084,8.391-7.858,13.341-7.512a7.208,7.208,0,0,0,4.249-1.076,7.568,7.568,0,0,1,7.92-.1l.02.012a3.887,3.887,0,0,0,3.72.265c3.536-1.7,11.271-.714,14.6,1.316,5.535,3.377,6.22,10.334,2.422,16.561s-14.316,8.356-19.851,4.979a10.517,10.517,0,0,1-2.071-1.654,1.739,1.739,0,0,0-2.759.3l-.037.06c-4.209,6.9-12.446,9.548-18.4,5.917S1704.73,470.764,1708.94,463.865Z" transform="translate(-1706.516 -454.108)"/><path class="ao" d="M2022.183,715.559s6.128-3.148,15.448-.285c0,0-1.822,7.821-2.36,11.179l-14.564.093Z" transform="translate(-1989.092 -687.913)"/><path class="ap" d="M2021.867,833.339l-.053,1.7s-5.158.908-16.069.541l1.505-1.764S2017.776,833.943,2021.867,833.339Z" transform="translate(-1975.635 -795.179)"/><path class="aq" d="M2086.072,642.39l-.71,7.03a1.113,1.113,0,0,0,.858,1.2,10.128,10.128,0,0,0,5.42-.07,1.121,1.121,0,0,0,.737-1.158l-.7-7.221Z" transform="translate(-2047.236 -623.246)"/><path class="ar" d="M2043.92,523.364c.689,4.9,4.3,9.523,9.981,8.506,3.93-.7,5.132-4.449,4.442-9.35s-4.153-8.628-8.107-8.072S2043.231,518.463,2043.92,523.364Z" transform="translate(-2009.881 -508.326)"/><path class="as" d="M2036.32,606.632s-.884-2.765-2.068-1.547,1.6,4.1,2.52,4.079S2036.32,606.632,2036.32,606.632Z" transform="translate(-2001.015 -589.614)"/><path class="at" d="M2033.6,513.925s4.356,4.967,6.943-5.04c0,0,2.246,3.067,3.375.434,0,0,4.584,1.7,5.146-.228s-6.067-7.382-11.6-3.736S2033.6,513.925,2033.6,513.925Z" transform="translate(-2000.469 -499.094)"/><path class="au" d="M1986.016,729.431s-8.721,6.6-3.792,14.753c3.792,6.272,12.584-.609,12.584-.609l-2.676-2.485s-2.867,2.995-5.161,1.115.956-7.423.956-7.423S1987.737,730.578,1986.016,729.431Z" transform="translate(-1953.124 -701.727)"/><g transform="translate(39.393 34.776)"><path class="av" d="M2098.838,808.58l7.492.261a.868.868,0,0,0,.9-.909l-.352-7.391a.868.868,0,0,0-.867-.827h-7.14a.868.868,0,0,0-.868.868v7.13A.868.868,0,0,0,2098.838,808.58Z" transform="translate(-2098 -799.715)"/></g><path class="aw" d="M2086.793,824.772a2.352,2.352,0,0,1-1.222-2.419c.265-1.676.647-2.249,2.559-2.058s3.25,2.1.956,3.058S2086.793,824.772,2086.793,824.772Z" transform="translate(-2047.401 -783.417)"/><path class="ax" d="M2152,818.276a5.342,5.342,0,0,0,.519-3.249c-.382-1.529-2.1-2.1-3.632-2.485s-1.3,1.406-.362,2.519S2152.058,817.129,2152,818.276Z" transform="translate(-2103.382 -776.427)"/></g></g><g transform="translate(479.166 526.137)"><g transform="translate(0 0)"><path class="ay" d="M561.812,1318.292c-5.447-19.67-.928-43.546.162-65.169.576-11.433.13-22.657-3.025-33.726-3.136-11.006-9.866-22.509-6.347-34.272,7.091-23.7,31.608-16.246,46.982-.892,17.842,17.817,25.934,49.46,34.786,73.511,5.337,14.5,12.514,29.167,16.21,44.151,6.123,24.823,2.527,43-8.107,56.26a36.736,36.736,0,0,1-42.61,11.005C586.234,1363.578,570.6,1350.023,561.812,1318.292Z" transform="translate(-551.61 -1169.932)"/><path class="az" d="M879.5,1524.083c-.427-13.085-1.434-29.315-3.475-46.77a486.352,486.352,0,0,0-13.307-70.349c-7.422-27.406-17.157-52.134-28.935-73.5a.563.563,0,0,0-.986.543c11.733,21.283,21.433,45.924,28.831,73.237a485.176,485.176,0,0,1,13.276,70.176c2.06,17.617,3.065,33.981,3.484,47.113Z" transform="translate(-804.436 -1316.749)"/></g></g><g transform="translate(471.061 542.705)"><g transform="translate(94.806 0)"><path class="ba" d="M1535.16,2016.8a14.7,14.7,0,0,0-8.344-15.7c-25.213-11.56-57.622-3.869-71.056-2.177a19.8,19.8,0,0,0-12.722,6.83c-11.679,13.91-6.719,16.577-29.793,87.851,4.269-2.37,14.451,15.49,18.572,11.092,8.207-13.607,12.532-33.356,20.268-49.662.264,1.293,1.2,1.559,1.313,2.874,2.323,27.557,2.389,50.688,2.807,57.153.307,4.749,58.8,4.97,58.319.234C1511.862,2088.815,1531.287,2040.882,1535.16,2016.8Z" transform="translate(-1413.246 -1928.405)"/><path class="bb" d="M2069.417,1776.976l3.192,23.819a4.176,4.176,0,0,1-3.319,4.661c-4.486.887-12.228,1.663-19.363-1.308a4.742,4.742,0,0,1-2.76-5.64l6.034-21.731Z" transform="translate(-1983.225 -1732.282)"/><g transform="translate(47.823)"><path class="bc" d="M1948.256,1460.978c-.361.365-14.687,31.167-14.687,31.167l17.761,7.806,17.916-27.177S1954.306,1454.863,1948.256,1460.978Z" transform="translate(-1929.035 -1447.116)"/><path class="bd" d="M1921.023,1361.257a2.791,2.791,0,0,1-.122,2.453l-8.191,14.827a2.709,2.709,0,0,1-.456.611c-1,1-4.449,3.935-7.328.212-2.453-3.173-4.751-6.056-7.145-7.193a2.785,2.785,0,0,0-3.713,1.371,104.068,104.068,0,0,0-5.456,14.35,2.774,2.774,0,0,0,1.735,3.342c3.587,1.306,10.667,3.648,16.9,4.282a2.786,2.786,0,0,0,2.593-1.214c2.537-3.75,9.692-14.231,12.168-16.88,2.3-2.46,6.732-1.721,8.735-1.222a2.8,2.8,0,0,0,2.214-.371c1.969-1.283,5.371-4.426,1.978-9.42a2.789,2.789,0,0,1,.727-3.817c2.193-1.558,4.532-4.418,2.049-8.826-2.513-4.463-6.725-4.721-9.571-4.27a2.894,2.894,0,0,1-3.095-1.579,1.843,1.843,0,0,0-1.478-1.081,2.705,2.705,0,0,1-2.3-3.1c.412-2.591-.086-5.919-4.275-8.031-7.681-3.874-14.04,3.111-15.515,8.868s7.092,9.483,12.415,9.966C1917.8,1354.9,1920.085,1359.067,1921.023,1361.257Z" transform="translate(-1888.511 -1334.588)"/><path class="be" d="M2190.764,1727.536s3-9.922,7.3-9.715,7.828,4.358,2.685,9.35C2194.353,1733.381,2190.764,1727.536,2190.764,1727.536Z" transform="translate(-2160.35 -1679.256)"/></g></g><g transform="translate(0 5.697)"><path class="bf" d="M551.912,1558.092s1.841,3.227-8.679,9c-5.866,3.221-17.35,8.136-18.214,20.7a14.345,14.345,0,0,1-11.3,13.246c-15.854,3.325-40.038,12.975-42.461,40.949-1.85,21.352,9.391,28.8,20.879,30.955a16.08,16.08,0,0,1,13.189,17.88c-1.174,8.151,1.745,17.339,16.115,23.944,32.2,14.8,60.415-42.549,60.415-42.549l1.089-97.5Z" transform="translate(-471.061 -1541.3)"/><path class="bg" d="M601.416,1892.622a2.888,2.888,0,0,1-1.367-.423c-7.544-4.348-11.965-13.93-10.75-23.3a22.263,22.263,0,0,1,7.021-13.922,34.309,34.309,0,0,1,9.1-5.318c5.282-2.334,10.739-4.434,16.219-6.241q.676-.223,1.354-.443a50.614,50.614,0,0,0,9.5-3.823c3.815-2.179,6.519-5.193,7.614-8.489a24.026,24.026,0,0,0,.887-6.428c.124-2.623.253-5.335,1.429-7.706a.042.042,0,0,1,.056-.019.042.042,0,0,1,.019.056c-1.168,2.356-1.3,5.059-1.42,7.673a24.1,24.1,0,0,1-.891,6.451c-1.1,3.315-3.818,6.347-7.652,8.535a50.67,50.67,0,0,1-9.518,3.83q-.678.22-1.354.443c-5.477,1.807-10.932,3.906-16.211,6.238a34.243,34.243,0,0,0-9.079,5.3,22.179,22.179,0,0,0-6.993,13.87c-1.211,9.34,3.193,18.888,10.708,23.219.584.337,1.692.72,2.136.022a.043.043,0,0,1,.058-.013.042.042,0,0,1,.013.058A.982.982,0,0,1,601.416,1892.622Z" transform="translate(-577.223 -1773.709)"/><path class="bg" d="M644.426,2266.853a.042.042,0,0,1-.034-.017,22.863,22.863,0,0,1-4.93-12.52,14.364,14.364,0,0,1,5.219-12.067.042.042,0,1,1,.05.067,14.28,14.28,0,0,0-5.186,12,22.778,22.778,0,0,0,4.913,12.473.042.042,0,0,1-.008.059A.042.042,0,0,1,644.426,2266.853Z" transform="translate(-622.503 -2156.607)"/><path class="bh" d="M1168.152,2160.645c7.079-39.556-17.477-60.366-17.477-60.366,13.958-14.947,40.446-22.85,40.446-22.85s26.636,17.323,24.4,32.145c-1.311,8.688-15.187,52.437-15.187,52.437S1185.723,2169.931,1168.152,2160.645Z" transform="translate(-1082.29 -2008.379)"/><path class="bi" d="M1117.582,2924.88c3.132-11.5,19.375-20.451,19.375-20.451,17.571,9.286,32.183,1.366,32.183,1.366s4.013,12.667,2.4,24.75l-.215,1.615a2.773,2.773,0,0,1-2.127,2.341c-18.008,4.09-41.578,1.373-50.417.1a3.252,3.252,0,0,1-2.7-3.985C1116.366,2929.441,1116.829,2927.644,1117.582,2924.88Z" transform="translate(-1051.095 -2752.163)"/><path class="bj" d="M1321.03,1799.336l-5.651,34.066c-.555,3,2.121,2.371,5.087,1.641,4.857-1.193,11.079-3.446,12.985-7.381a3.627,3.627,0,0,0,.314-1.289l1.942-23.514a4.2,4.2,0,0,0-2.7-4.272l-6.362-2.414A4.2,4.2,0,0,0,1321.03,1799.336Z" transform="translate(-1230.354 -1755.176)"/><g transform="translate(75.1)"><path class="bk" d="M1332.536,1508.521s8.272,4.963,12.453,18.527-1.121,18.8-6.847,18.811-14.1-1.3-21.815-10.775S1321.722,1502.495,1332.536,1508.521Z" transform="translate(-1304.288 -1495.828)"/><path class="bl" d="M1236.377,1424.522s-4-19.544,12.523-17.425l3.5,3.263s7.514-9.456-1.72-15.788-21.436-3.913-27.56,8.869-8.116,21.638-1.992,29.037,10.052.551,10.052.551-2.98-6.531-.967-9.514,5.061,1.394,5.061,1.394Z" transform="translate(-1217.408 -1391.208)"/><path class="bm" d="M1329.948,1689.588s-2-10.059-7.016-6.877,2.384,9.368,5.331,11.449Z" transform="translate(-1310.784 -1652.819)"/></g><g transform="translate(55.294 90.814)"><path class="bn" d="M1038.757,2294.2a7.8,7.8,0,0,0-8.472,2.133c-4.245,4.665-11.848,16.378-9.146,42.843,2.944,28.841,49.732,25.959,49.732,25.959l5.388-9.657s-35.5-2.577-37.444-17.269c-1.367-10.348,4.248-21.655,8.349-27.116a7.465,7.465,0,0,0,1.017-7.292C1046.483,2299.687,1042.709,2295.708,1038.757,2294.2Z" transform="translate(-1020.572 -2293.718)"/><path class="bo" d="M1516.847,2868.393a69.159,69.159,0,0,1,9.093-5.692c4.214-2.051,5.877-.776,5.877-.776s-4.214,2.052-5.489,3.715,7.229.551,10.323.137,4.595,6.74,1.682,9.427-11.145,8.26-21.125.61Z" transform="translate(-1466.91 -2804.398)"/></g></g><g transform="translate(98.996 87.664)"><g transform="translate(16.777)"><path class="bp" d="M1661.531,2816.248c-10.205,3.471-23.4,5.011-36.3,8.018l-3.622-8.157a234.474,234.474,0,0,0,30.683-17.328C1653.965,2807.447,1658.99,2813.05,1661.531,2816.248Z" transform="translate(-1621.611 -2739.113)"/><path class="bq" d="M1982.5,2207s18.778-8.064,15.156,17.621c-1.468,10.412-8.482,33.907-16.758,40.848-8.809,7.388-11.213,10.906-45.119,17.467-2.54-3.2-7.566-8.8-9.237-17.467C1973.953,2241.651,1976.78,2218.547,1982.5,2207Z" transform="translate(-1895.855 -2205.799)"/></g><path class="br" d="M1478.743,2936.669s-3.721-4.658-12.518-3.155-13.234,9.782-10.573,14.76,20.272,5.854,24.75-6.115S1478.743,2936.669,1478.743,2936.669Z" transform="translate(-1454.885 -2860.02)"/></g></g></g></svg>