<?xml version="1.0" encoding="utf-8"?>
<svg width="278.514" height="279.816" viewBox="0 0 278.514 279.816" xmlns="http://www.w3.org/2000/svg" xmlns:xlink="http://www.w3.org/1999/xlink">
  <defs>
    <style>.a{opacity:0.3;fill:url(#a);}.b{fill:url(#b);}.c{fill:url(#c);}.d{fill:url(#d);}.e{fill:url(#e);}.f{fill:#f0f0f0;}.g{fill:url(#f);}.az,.bg,.h{fill:#fff;}.h{opacity:0.36;}.i{fill:url(#g);}.j{fill:url(#h);}.k{fill:url(#i);}.l{fill:url(#j);}.m{fill:url(#k);}.n{fill:url(#l);}.o{fill:url(#m);}.p{fill:url(#n);}.q{fill:url(#o);}.r{fill:url(#p);}.s{fill:url(#q);}.t{fill:url(#r);}.u{fill:url(#s);}.v{fill:url(#t);}.aa,.ah,.ai,.aj,.ak,.al,.am,.an,.ao,.ap,.aq,.ar,.as,.at,.au,.aw,.ax,.w,.x,.y,.z{fill-rule:evenodd;}.w{fill:url(#u);}.x{fill:url(#v);}.y{fill:url(#w);}.z{fill:url(#x);}.aa{fill:url(#y);}.ab{fill:url(#z);}.ac{fill:url(#aa);}.ad{fill:url(#ab);}.ae{fill:url(#ac);}.af{fill:url(#ad);}.ag{fill:url(#ae);}.ah{fill:url(#af);}.ai{fill:url(#ag);}.aj{fill:url(#ah);}.ak{fill:url(#ai);}.al{fill:url(#aj);}.am{fill:url(#ak);}.an{fill:url(#al);}.ao{fill:url(#am);}.ap{fill:url(#an);}.aq{fill:url(#ao);}.ar{fill:url(#ap);}.as{fill:url(#aq);}.at{fill:url(#ar);}.au{fill:url(#as);}.av{fill:url(#at);}.aw{fill:url(#au);}.ax{fill:url(#av);}.ay{fill:url(#aw);}.az{opacity:0.5;}.ba{fill:url(#ax);}.bb{fill:url(#ay);}.bc{fill:url(#az);}.bd{fill:url(#ba);}.be{fill:url(#bb);}.bf{fill:url(#bc);}.bh{fill:url(#bd);}.bi{fill:url(#be);}.bj{fill:url(#bf);}.bk{fill:url(#bg);}.bl{fill:url(#bh);}.bm{fill:url(#bi);}.bn{fill:url(#bj);}.bo{fill:url(#bk);}.bp{fill:url(#bl);}.bq{fill:url(#bm);}.br{fill:url(#bn);}</style>
    <linearGradient id="a" x1="1.061" y1="1.13" x2="0.324" y2="0.337" gradientUnits="objectBoundingBox">
      <stop offset="0" stop-color="#b37cff"/>
      <stop offset="1" stop-color="#f895e7"/>
    </linearGradient>
    <linearGradient id="b" x1="-9.354" y1="0.982" x2="-8.976" y2="0.162" gradientUnits="objectBoundingBox">
      <stop offset="0" stop-color="#a737d5"/>
      <stop offset="1" stop-color="#ef497a"/>
    </linearGradient>
    <linearGradient id="c" x1="8.673" y1="0.004" x2="7.449" y2="0.994" gradientUnits="objectBoundingBox">
      <stop offset="0" stop-color="#2b3582"/>
      <stop offset="1" stop-color="#150e42"/>
    </linearGradient>
    <linearGradient id="d" x1="-9.045" y1="1.118" x2="-9.943" y2="0.278" gradientUnits="objectBoundingBox">
      <stop offset="0" stop-color="#233894"/>
      <stop offset="0.996" stop-color="#dd397a"/>
    </linearGradient>
    <linearGradient id="e" x1="8.109" y1="-0.007" x2="7.409" y2="1.009" xlink:href="#c"/>
    <linearGradient id="f" x1="-4.212" y1="0.949" x2="-4.806" y2="2.766" gradientUnits="objectBoundingBox">
      <stop offset="0" stop-color="#53d8ff"/>
      <stop offset="1" stop-color="#3840f7"/>
    </linearGradient>
    <linearGradient id="g" x1="-24.62" y1="2.322" x2="-38.018" y2="21.508" xlink:href="#f"/>
    <linearGradient id="h" x1="-56.571" y1="2.939" x2="-89.785" y2="48.382" xlink:href="#f"/>
    <linearGradient id="j" x1="-37.284" y1="-0.426" x2="-36.755" y2="2.501" gradientUnits="objectBoundingBox">
      <stop offset="0" stop-color="#f9b776"/>
      <stop offset="1" stop-color="#f47960"/>
    </linearGradient>
    <linearGradient id="k" x1="19.382" y1="0.405" x2="19.47" y2="2.856" gradientUnits="objectBoundingBox">
      <stop offset="0" stop-color="#fdf53f"/>
      <stop offset="1" stop-color="#d93c65"/>
    </linearGradient>
    <linearGradient id="l" x1="57.654" y1="-1.204" x2="58.695" y2="-1.204" gradientUnits="objectBoundingBox">
      <stop offset="0" stop-color="#2c759e"/>
      <stop offset="1" stop-color="#051042"/>
    </linearGradient>
    <linearGradient id="m" x1="335.319" y1="-1.379" x2="330.025" y2="-1.404" gradientUnits="objectBoundingBox">
      <stop offset="0" stop-color="#53eac9"/>
      <stop offset="0.996" stop-color="#45aed8"/>
    </linearGradient>
    <linearGradient id="n" x1="183.006" y1="-4.058" x2="179.566" y2="3.366" xlink:href="#j"/>
    <linearGradient id="o" x1="-157.318" y1="-3.9" x2="-156.273" y2="-3.9" xlink:href="#l"/>
    <linearGradient id="p" x1="-873.928" y1="-4.249" x2="-879.049" y2="-4.273" xlink:href="#m"/>
    <linearGradient id="q" x1="186.632" y1="-6.36" x2="183.144" y2="1.144" xlink:href="#j"/>
    <linearGradient id="r" x1="17.473" y1="-0.294" x2="16.659" y2="1.012" xlink:href="#c"/>
    <linearGradient id="s" x1="17.925" y1="0.898" x2="17.7" y2="-0.262" xlink:href="#c"/>
    <linearGradient id="t" x1="51.131" y1="1.753" x2="51.109" y2="-0.794" xlink:href="#j"/>
    <linearGradient id="u" x1="-39.042" y1="-10.952" x2="-38.368" y2="-9.31" gradientUnits="objectBoundingBox">
      <stop offset="0" stop-color="#cb236d"/>
      <stop offset="1" stop-color="#4c246d"/>
    </linearGradient>
    <linearGradient id="v" x1="-48.52" y1="-9.019" x2="-48.672" y2="-10.29" xlink:href="#j"/>
    <linearGradient id="w" x1="-529.495" y1="-42.895" x2="-531.176" y2="-48.711" xlink:href="#j"/>
    <linearGradient id="x" x1="-49.27" y1="-17.596" x2="-48.421" y2="-15.017" xlink:href="#u"/>
    <linearGradient id="y" x1="-255.161" y1="-33.818" x2="-255.942" y2="-38.397" xlink:href="#j"/>
    <linearGradient id="z" x1="-129.464" y1="-0.211" x2="-127.771" y2="2.297" xlink:href="#j"/>
    <linearGradient id="aa" x1="-104.629" y1="0.041" x2="-104.137" y2="1.874" xlink:href="#j"/>
    <linearGradient id="ab" x1="-73.986" y1="0.063" x2="-74.79" y2="0.956" xlink:href="#b"/>
    <linearGradient id="ac" x1="-101.203" y1="-0.128" x2="-100.472" y2="2.082" xlink:href="#j"/>
    <linearGradient id="aw" x1="-0.111" y1="1.028" x2="0.392" y2="0.656" xlink:href="#b"/>
  </defs>
  <g transform="matrix(1, 0, 0, 1, -471.061005, -453.086761)">
    <path class="a" d="M751.136,643.23c-27.993,65.429-101.884,93.533-159.779,88.741-15.808-1.308-47.613-3.941-72.447-27.425-47.692-45.1-40.347-139.374,5.308-194.877,5.879-7.148,46.576-55.036,109.994-54.395,46.431.469,79.02,26.7,82.983,29.965a127.817,127.817,0,0,1,26,29.5C766.573,551.3,768.629,602.343,751.136,643.23Z" transform="translate(-13.795 -1.043)"/>
    <g transform="translate(637.322 515.004)">
      <path class="b" d="M2148.53,1270.368c13.985,2.8,31.845-12.451,37.6-29.109,5.921-17.142-4.935-24.323-4.852-48.11.1-27.021,14.151-31.094,23.449-67.516,2.1-8.218,14.237-55.772-.809-64.686-13.911-8.242-52.986,15.411-59.834,45.684-4.884,21.586,10.213,30.65,4.447,55.792-5.059,22.06-18.354,22.379-23.448,43.663C2118.879,1232,2130.167,1266.7,2148.53,1270.368Z" transform="translate(-2123.368 -1059.291)"/>
      <path class="c" d="M2374.362,1694.909c-3.77-29.113,3.585-74.028,10.418-106.58,7.4-35.244,15.8-63.991,15.88-64.277l1.164.342c-.084.286-8.47,29-15.859,64.194-6.813,32.458-14.149,77.224-10.4,106.167Z" transform="translate(-2348.185 -1477.285)"/>
    </g>
    <g transform="translate(660.831 594.307)">
      <path class="d" d="M2374.338,1979.23c-16.54-8.618-22.2-38.21-12.8-47.828,6.353-6.5,15.462.337,24.251-6.4,11.221-8.6,2.967-24.8,11.789-45.807,7.508-17.878,25.516-34.8,36.04-31.324,11.016,3.633,16.818,30.593,7.41,46.818-6.118,10.551-15.483,11.069-17.514,20.883-2.357,11.387,9.032,16.58,9.094,27.619C2432.719,1963.021,2396.219,1990.631,2374.338,1979.23Z" transform="translate(-2357.002 -1847.415)"/>
      <path class="e" d="M2611.973,2341.729a.674.674,0,0,1-.605-.968c21.927-45.183,28.356-97.6,28.419-98.123a.674.674,0,0,1,1.338.159c-.063.527-6.52,53.168-28.545,98.552A.674.674,0,0,1,2611.973,2341.729Z" transform="translate(-2585.711 -2202.335)"/>
      <path class="f" d="M3062.187,1950.314a.322.322,0,0,1-.254-.52c6.921-8.884,14.592-22.231,11.831-35.365a23.02,23.02,0,0,0-6.32-11.942.322.322,0,1,1,.421-.487,23.265,23.265,0,0,1,6.529,12.3c1.552,7.383.739,19.6-11.953,35.893A.322.322,0,0,1,3062.187,1950.314Z" transform="translate(-2990.939 -1896.437)"/>
      <path class="f" d="M2404.29,2721.491a.322.322,0,0,1-.266-.14c-10.636-15.523-14.263-27.518-10.781-35.65,3.1-7.23,10.916-8.576,10.995-8.589a.322.322,0,0,1,.1.635c-.075.012-7.556,1.309-10.509,8.215-3.385,7.917.223,19.7,10.723,35.025a.322.322,0,0,1-.265.5Z" transform="translate(-2388.445 -2593.621)"/>
    </g>
    <g transform="translate(587.96 454.108)">
      <path class="g" d="M1741.542,505.484c34.23,9.759,77.152,41.364,35.907,40.253s-12.54,22.674-37.706,25.627-64.639,3.957-93.311-15.052-4.775-28,5.644-28.611C1686.378,525.691,1645.386,478.072,1741.542,505.484Z" transform="translate(-1632.814 -492.685)"/>
      <path class="h" d="M 104.625 15.297 C 134.942 24.074 172.983 52.408 136.468 51.357 C 99.953 50.306 125.398 71.624 103.123 74.231 C 80.848 76.838 45.905 77.681 20.496 60.636 C -4.913 43.591 16.23 35.58 25.453 35.049 C 55.818 33.298 19.463 -9.359 104.625 15.297 Z"/>
      <path class="i" d="M1736.933,1313.161c2.027,2.489,7.137,5.177,11.25,1.827s5.672-11.47,3.644-13.959-7.005-1.791-11.118,1.559S1734.905,1310.672,1736.933,1313.161Z" transform="translate(-1725.685 -1214.467)"/>
      <path class="j" d="M1660.236,1524.768a2.913,2.913,0,0,0,4.105.286c1.286-1.047,2.846-4.37,1.864-5.576s-3.558-1.159-4.844-.112S1659.254,1523.563,1660.236,1524.768Z" transform="translate(-1657.087 -1411.467)"/>
    </g>
    <g transform="translate(479.166 526.137)">
      <g transform="translate(0 0)">
        <path class="ay" d="M561.812,1318.292c-5.447-19.67-.928-43.546.162-65.169.576-11.433.13-22.657-3.025-33.726-3.136-11.006-9.866-22.509-6.347-34.272,7.091-23.7,31.608-16.246,46.982-.892,17.842,17.817,25.934,49.46,34.786,73.511,5.337,14.5,12.514,29.167,16.21,44.151,6.123,24.823,2.527,43-8.107,56.26a36.736,36.736,0,0,1-42.61,11.005C586.234,1363.578,570.6,1350.023,561.812,1318.292Z" transform="translate(-551.61 -1169.932)"/>
        <path class="az" d="M879.5,1524.083c-.427-13.085-1.434-29.315-3.475-46.77a486.352,486.352,0,0,0-13.307-70.349c-7.422-27.406-17.157-52.134-28.935-73.5a.563.563,0,0,0-.986.543c11.733,21.283,21.433,45.924,28.831,73.237a485.176,485.176,0,0,1,13.276,70.176c2.06,17.617,3.065,33.981,3.484,47.113Z" transform="translate(-804.436 -1316.749)"/>
      </g>
    </g>
    <ellipse style="stroke: rgb(0, 0, 0); fill: rgb(145, 230, 255);" cx="623.479" cy="585.336" rx="52.848" ry="53.614"/>
    <path d="M 564.587 619.069 L 577.575 619.069 L 577.575 676.557 L 564.587 676.557 L 564.587 619.069 Z" style="stroke: rgb(0, 0, 0); fill: rgb(145, 229, 255); fill-rule: nonzero;" transform="matrix(0.767029, 0.641612, -0.641612, 0.767029, 548.68991, -215.491016)"/>
    <ellipse style="stroke: rgb(0, 0, 0); fill: rgb(145, 230, 255);" cx="622.968" cy="584.796" rx="41.87" ry="41.614"/>
    <g transform="matrix(0.917946, 0, 0, 0.965517, 539.130371, 546.176697)" style="">
      <g transform="matrix(1, 0, 0, 1, 45.297031, 8.004679)">
        <path class="l" d="M2422.728,799.715s-9.366,9.748-15.291,0l-1.72,2.676s6.881,14.144,21.79,1.72Z" transform="translate(-2387.294 -769.879)"/>
        <path class="m" d="M2565.4,720.322a12.31,12.31,0,0,1,3.742-1.741c.5-.137,3.216.652,4.894.613,2.3-.053,4.646-1.1,6.544-.628a13.693,13.693,0,0,1,4.32,1.717c2.667,1.9,4.233,5.434,5.187,8.937a12.208,12.208,0,0,1-4.081,2.679l-.42,17.029-10.29,3.115-11.273-3.733.412-16.642s-4.736-4.047-5-4.665S2562.182,722.536,2565.4,720.322Z" transform="translate(-2525.529 -696.787)"/>
        <g transform="translate(59.767 54.206)">
          <path class="n" d="M2839.166,1043.221c-2.527-.58-8.368-.268-8.368-.268l-.238.643-.393,3.2a66.471,66.471,0,0,0,8.3,1,2.583,2.583,0,0,0,.77-.115c.083-.075.165-.153.242-.237A3.014,3.014,0,0,0,2839.166,1043.221Z" transform="translate(-2828.802 -1042.772)"/>
          <path class="o" d="M2919.846,1046.43c-.079-.022-.163-.043-.25-.063a3.014,3.014,0,0,1,.317,4.221c-.077.084-.159.162-.243.237C2921.727,1050.185,2921.971,1047.028,2919.846,1046.43Z" transform="translate(-2909.232 -1045.919)"/>
          <path class="p" d="M2816.921,1041.912l.989.042a1.9,1.9,0,0,1,1.389.718,2.344,2.344,0,0,1,.51,1.6,1.846,1.846,0,0,1-.535,1.22,1.5,1.5,0,0,1-1.157.439l-1.513-.108Z" transform="translate(-2816.604 -1041.912)"/>
        </g>
        <g transform="translate(25.042 54.121)">
          <path class="q" d="M2479.431,1041.288c2.54-.5,8.371-.011,8.371-.011l.221.651.314,3.208a66.356,66.356,0,0,1-8.326.745,2.594,2.594,0,0,1-.766-.138c-.082-.078-.161-.158-.236-.245A3.01,3.01,0,0,1,2479.431,1041.288Z" transform="translate(-2477.644 -1041.061)"/>
          <path class="r" d="M2473.042,1043.366c.08-.02.164-.038.252-.056a3.01,3.01,0,0,0-.422,4.209c.075.087.155.167.236.245C2471.068,1047.061,2470.9,1043.9,2473.042,1043.366Z" transform="translate(-2471.506 -1043.084)"/>
          <path class="s" d="M2562.834,1041.92l-.99.012a1.893,1.893,0,0,0-1.407.675,2.333,2.333,0,0,0-.549,1.587,1.857,1.857,0,0,0,.5,1.236,1.507,1.507,0,0,0,1.146.475l1.515-.061Z" transform="translate(-2550.994 -1041.834)"/>
        </g>
        <path class="t" d="M2615.5,924.457c-1.146-2.638-3.949-3.066-6.335-1.832-.042.055-15.15,7.8-28.474,11.192a14.484,14.484,0,0,1,.62,3.8q.011.427-.014.843c10.218-.525,21.307-3.932,30.835-6.927A5.267,5.267,0,0,0,2615.5,924.457Z" transform="translate(-2544.661 -879.827)"/>
        <path class="u" d="M2530.462,934.6a8.789,8.789,0,0,1,.86-4.117c.018-.058.039-.114.057-.171-.761-.236-1.744-.555-3.035-.993a145.645,145.645,0,0,1-23.568-10.271c-2.676-1.462-5.719-.482-6.576,2.684a4.962,4.962,0,0,0,3.463,6.088c7.625,2.537,3.655,1.833,6.146,2.634a104.218,104.218,0,0,0,22.669,4.466C2530.472,934.813,2530.466,934.706,2530.462,934.6Z" transform="translate(-2470.305 -876.607)"/>
        <path class="v" d="M2656.089,680.653a5.836,5.836,0,0,0,5.958,4.318c5.032-.092,5.48-4.332,5.48-4.332l-3.287-.7-.275-3.662-4.944.366-.092,3.479Z" transform="translate(-2612.474 -658.859)"/>
        <path class="w" d="M2611.377,515.614s-2.021-2.077-.5-3.728a3.151,3.151,0,0,1-.015-3.81s1.3-7.355,8.657-3.985c0,0,4.957-2.7,8.257,3.381a2.82,2.82,0,0,1,1.791,3.169s2.394,8.9-6.4,7.625Z" transform="translate(-2571.207 -503.208)"/>
        <path class="x" d="M2615.635,560.592s-5.873,10.91,1.385,13.714,10.155-4.868,10.155-4.868,2.693-3.6,1.34-5.943S2617.225,559.016,2615.635,560.592Z" transform="translate(-2574.073 -554.331)"/>
        <path class="y" d="M2608.057,604.57s.3-1.367-.913-1.451.356,3.248.356,3.248Z" transform="translate(-2568.04 -593.064)"/>
        <path class="z" d="M2636.2,549s-7.357-1.345-7.28-5.6a1.574,1.574,0,0,1-1.768-1.118s-3.076,3.562-4.267,1.494c0,0-.076-5.484,4.386-4.268s8.562,2.508,9.854,3.612S2639.744,547.129,2636.2,549Z" transform="translate(-2582.612 -535.702)"/>
        <path class="aa" d="M2742.374,627.339l.82-3.613s2.287-1.423,2.2.5A3.46,3.46,0,0,1,2742.374,627.339Z" transform="translate(-2690.077 -611.142)"/>
        <path class="ab" d="M2759.135,826.1s3.794,15.312-7.866,19.708a7.994,7.994,0,0,1-3.632-1.338,18.691,18.691,0,0,0,7.2-15.775A31.323,31.323,0,0,1,2759.135,826.1Z" transform="translate(-2694.811 -793.609)"/>
        <path class="ac" d="M2706.1,983.68s-3.632-.765-5.161-.956-3.586-.555-2.653-2.762,2.271-1.825,3.991-.87C2703.068,979.531,2707.247,982.341,2706.1,983.68Z" transform="translate(-2650.215 -930.525)"/>
        <g transform="translate(9.629 31.187)">
          <path class="ad" d="M2319.3,823.3l8.58.3a.994.994,0,0,0,1.027-1.041l-.4-8.463a.994.994,0,0,0-.993-.947h-8.177a.994.994,0,0,0-.994.994V822.3A.994.994,0,0,0,2319.3,823.3Z" transform="translate(-2318.336 -813.145)"/>
        </g>
        <path class="ae" d="M2350.637,787.674c.16-.773.683-3.483,2.077-4.021,2.884-1.114,5.271,1.547,5.271,1.547l.479,2.165a.912.912,0,0,0-.361-.318c-.37,1.422-1.537,2.8-2.124,2.564-.956-.382-.764-.382.191-1.911l.008-.012a.649.649,0,0,0-.6-.978c-1.248.081-2.469.427-2.707.964C2352.395,788.756,2350.478,788.447,2350.637,787.674Z" transform="translate(-2337.75 -755.188)"/>
      </g>
    </g>
  </g>
</svg>